<svg xmlns="http://www.w3.org/2000/svg" viewBox="0 0 271.63 272.89"><defs><style>.cls-1{fill:#f6f6f6;}.cls-2{fill:#94e1a1;}.cls-3,.cls-5,.cls-7{fill:#fff;}.cls-4{fill:#80b0ff;}.cls-5,.cls-7{stroke:#000;stroke-miterlimit:10;}.cls-6{font-size:16.78px;font-family:Aileron-SemiBold, Aileron;font-weight:600;}.cls-7{stroke-width:2px;}</style></defs><g id="Capa_4" data-name="Capa 4"><path d="M102,90v48a1.25,1.25,0,0,0,2.5,0V90a1.25,1.25,0,0,0-2.5,0Z"/><polyline class="cls-1" points="76.24 176.95 151.3 176.95 153.71 181.88 77.71 181.88 75.82 177.16"/><path d="M103.2,136.71H88.08a1.25,1.25,0,0,0,0,2.5H103.2a1.25,1.25,0,0,0,0-2.5Z"/><polygon class="cls-2" points="86.62 141.51 156.13 141.51 158.33 141.51 158.33 180.99 156.34 181.88 154.87 179.44 154.13 176.56 153.92 174.56 85.15 174.56 85.15 141.63 86.62 141.51"/><polygon class="cls-3" points="106.12 85.37 152.82 85.37 152.82 135.7 106.3 135.7 106.12 85.37"/><polyline class="cls-4" points="169.49 144.34 194.81 144.34 194.81 79.24 154.24 79.24 154.24 135.12 166.09 135.64"/><rect class="cls-5" x="166.04" y="130.74" width="7.47" height="7.61"/><rect class="cls-5" x="156.7" y="130.72" width="7.47" height="7.61"/><path d="M103.2,139.3h55.17a1.25,1.25,0,0,0,0-2.5H103.2a1.25,1.25,0,0,0,0,2.5Z"/><path d="M158.32,139.28h7.09a1.25,1.25,0,0,0,0-2.5h-7.09a1.26,1.26,0,0,0-1.25,1.25,1.28,1.28,0,0,0,1.25,1.25Z"/><path d="M108.89,86h42.73a1.25,1.25,0,0,0,0-2.5H108.89a1.25,1.25,0,0,0,0,2.5Z"/><path d="M177.05,148.56V159.4a1.25,1.25,0,0,0,2.5,0V148.56a1.25,1.25,0,0,0-2.5,0Z"/><path d="M80.23,143v31.9a1.25,1.25,0,0,0,2.5,0V143a1.25,1.25,0,0,0-2.5,0Z"/><path d="M74.13,176.35h78.25a1.25,1.25,0,0,0,0-2.5H74.13a1.25,1.25,0,0,0,0,2.5Z"/><path d="M159.61,143.07v34.77a1.25,1.25,0,0,0,2.5,0V143.07a1.25,1.25,0,0,0-2.5,0Z"/><path d="M76.7,184.07c20.66,0,41.32-.2,62-.29q8.82,0,17.63,0a1.25,1.25,0,0,0,0-2.5c-20.66,0-41.32.2-62,.29q-8.82,0-17.63,0a1.25,1.25,0,0,0,0,2.5Z"/><path d="M149.79,77v59a1.88,1.88,0,0,0,3.75,0V77a1.88,1.88,0,0,0-3.75,0Z"/><path d="M196,118.27v26.42a1.88,1.88,0,0,0,3.75,0V118.27a1.88,1.88,0,0,0-3.75,0Z"/><path d="M168.46,149.56h24.92a1.88,1.88,0,0,0,0-3.75H168.46a1.88,1.88,0,0,0,0,3.75Z"/><path d="M104.45,90.25c0-.35.12-.71.2-1.06,0-.18.1-.36.16-.54l.09-.25c0-.11.06-.2,0,0a4,4,0,0,1,.46-.86,1.18,1.18,0,0,1,.13-.18c-.1.07-.11.14,0,0a2.82,2.82,0,0,1,.33-.36l.17-.15c.19-.16,0,0,0,0a2.47,2.47,0,0,0,.38-.25l.25-.13c.21-.1-.14.05,0,0l.45-.15a6.65,6.65,0,0,1,1-.19c-.34,0,0,0,.05,0l.19,0,.57,0a1.25,1.25,0,0,0,0-2.5,13.89,13.89,0,0,0-2.47.36,5.73,5.73,0,0,0-2.28,1.25A7.31,7.31,0,0,0,102,89.59a1.33,1.33,0,0,0,.13,1,1.29,1.29,0,0,0,.74.58,1.27,1.27,0,0,0,1.54-.88Z"/><path d="M199.74,118.27v-41a1.88,1.88,0,0,0-3.75,0v41a1.88,1.88,0,0,0,3.75,0Z"/><path d="M151.12,175.1a10.31,10.31,0,0,0,4.3,8.41,1.26,1.26,0,0,0,1.71-.44,1.28,1.28,0,0,0-.45-1.71l-.18-.14-.06-.05c-.13-.11-.26-.22-.38-.34a8.82,8.82,0,0,1-.67-.7l-.18-.22c.08.1,0,.06,0,0l-.29-.42a7.86,7.86,0,0,1-.51-.89c-.07-.14-.13-.27-.19-.41s0,.15,0-.07l-.08-.21a8.46,8.46,0,0,1-.29-1,4.91,4.91,0,0,1-.1-.5,1.85,1.85,0,0,1,0-.23c0-.19,0,.19,0,0,0-.37,0-.72,0-1.08a1.26,1.26,0,0,0-1.25-1.25,1.28,1.28,0,0,0-1.25,1.25Z"/><path d="M156.62,183.65a12.74,12.74,0,0,0,2-.87,5.65,5.65,0,0,0,1.8-1.21,6.35,6.35,0,0,0,1.68-4.09,1.25,1.25,0,0,0-2.5,0,2.75,2.75,0,0,1,0,.42s.06-.32,0-.05c0,.07,0,.14,0,.21a2.64,2.64,0,0,1-.12.4s-.05.12-.06.16c.07-.15.09-.19.05-.1a.61.61,0,0,0-.05.12,7.14,7.14,0,0,1-.4.71l-.24.35c-.05.07-.11.24,0,0a.75.75,0,0,1-.14.17l-.15.15c-.12.11,0,0,0,0a2.05,2.05,0,0,0-.36.24c-.25.14-.51.27-.77.4l-.82.4c-.16.07,0,0,0,0s-.17.06-.21.08l-.48.16a1.28,1.28,0,0,0-.87,1.54,1.26,1.26,0,0,0,1.54.87Z"/><path d="M73.78,173.88c-1.27.22-1.35,1.79-1.2,2.78a13.92,13.92,0,0,0,.92,2.63,25.91,25.91,0,0,0,1.07,2.55c.43.84,1.07,1.91,2,2.17a1.25,1.25,0,1,0,.66-2.41c.28.2.34.23.19.08l-.18-.2c.12.14-.09-.14-.11-.16a7.9,7.9,0,0,1-.46-.8,16.62,16.62,0,0,1-.68-1.61l-.76-2-.15-.42-.06-.24c0-.15,0-.18,0-.1s0,0,0-.11v-.27c0-.18,0-.18,0,0a.94.94,0,0,1-.57.53,1.25,1.25,0,1,0-.66-2.41Z"/><path d="M95,136.71H86.65a1.25,1.25,0,0,0,0,2.5H95A1.26,1.26,0,0,0,96.22,138,1.28,1.28,0,0,0,95,136.71Z"/><path d="M82.62,143.25a17.72,17.72,0,0,1,.64-2l.17-.44c0-.13,0-.17,0,0a1.47,1.47,0,0,1,.1-.22l.12-.21c.1-.2-.09.08,0,0l.15-.15s.22-.2.07-.07.07,0,.09-.06l.15-.09.39-.2.41-.19c.21-.1-.1,0,0,0l.25-.09.24-.05c.17,0-.3,0,0,0l.5,0,1.06-.06a1.25,1.25,0,0,0,0-2.5,11.4,11.4,0,0,0-2.48.24,7,7,0,0,0-2.17,1.09A4.49,4.49,0,0,0,81,140.3a18,18,0,0,0-.74,2.29,1.25,1.25,0,0,0,2.41.66Z"/><path d="M165.05,139.22a.78.78,0,0,1,.69.37,2.35,2.35,0,0,1,.37,1,18.24,18.24,0,0,1,.13,3l.08,3.18a2.44,2.44,0,0,0,.43,1.79,2.27,2.27,0,0,0,1.77.45,1.25,1.25,0,0,0,0-2.5h-.34c-.25,0-.23,0,.08.08l.58.75c.06.15,0,.2,0,0s0-.25,0-.37l0-.85,0-1.49c0-1,0-2.09-.08-3.14-.08-1.88-.78-4.26-3-4.59a1.28,1.28,0,0,0-1.53.88,1.25,1.25,0,0,0,.87,1.53Z"/><path d="M166.3,147.6v7.59a1.26,1.26,0,0,0,1.25,1.25,1.28,1.28,0,0,0,1.25-1.25V147.6a1.25,1.25,0,1,0-2.5,0Z"/><path d="M162,166.55h11.17a1.25,1.25,0,0,0,0-2.5H162a1.25,1.25,0,0,0,0,2.5Z"/><path d="M193.38,149.56a7.47,7.47,0,0,0,2.15-.49,8.44,8.44,0,0,0,1.82-.93,6.47,6.47,0,0,0,1.65-1.69,5.09,5.09,0,0,0,.75-2.3,1.86,1.86,0,0,0-.55-1.33,1.87,1.87,0,0,0-2.65,0,2.09,2.09,0,0,0-.55,1.33.78.78,0,0,1,0,.14l.07-.5a3.49,3.49,0,0,1-.2.7L196,144a3.9,3.9,0,0,1-.45.76l.29-.38a4.37,4.37,0,0,1-.68.68l.38-.29a6.28,6.28,0,0,1-1.38.78l.45-.18a6.63,6.63,0,0,1-1.52.44l.5-.07-.25,0a1.92,1.92,0,0,0-1.32.55,1.86,1.86,0,0,0-.55,1.32,1.88,1.88,0,0,0,.55,1.33,1.82,1.82,0,0,0,1.32.55Z"/><path d="M162.13,143.09a1.94,1.94,0,0,1,0-.24q0,.17,0,0c0-.13.06-.27.09-.41s.14-.46.22-.69.08-.22.13-.34l.09-.22c0,.09,0,.1,0,0,.11-.24.2-.49.32-.72,0-.06.23-.31.06-.13.06-.06.23-.22.06-.09a3.4,3.4,0,0,1,.67-.38c.23-.11-.14,0,.13,0l.34-.1c.07,0,.35-.07.12,0,.14,0,.27,0,.41,0s.07,0,0,0l.19,0,.37.1c.23,0-.17-.13,0,0l.12.07c.07.06.05,0-.07,0,.06,0,.15.16.2.21-.2-.23,0,0,.05.1s.11.2.16.3-.08-.24,0,.08.16.45.22.69.07.27.1.41.07.45,0,.2a6.7,6.7,0,0,1,0,1.55,1.26,1.26,0,0,0,1.25,1.25,1.28,1.28,0,0,0,1.25-1.25,7.91,7.91,0,0,0-.69-4.1,3.68,3.68,0,0,0-1.24-1.52,4,4,0,0,0-2-.57,4.76,4.76,0,0,0-2.16.5A3.66,3.66,0,0,0,161,139a10.37,10.37,0,0,0-.87,2,7.9,7.9,0,0,0-.46,2.09,1.26,1.26,0,0,0,1.25,1.25,1.29,1.29,0,0,0,1.25-1.25Z"/><path d="M177,159.38s0,.09,0,.13,0,.06,0-.11a.86.86,0,0,1,0,.27c0,.15-.06.3-.09.44a4.34,4.34,0,0,1-.32.94l0,0-.12.24c-.07.13-.14.26-.22.39s-.19.31-.29.46l-.14.18c0,.07,0,0,.06-.07l-.09.1a6.64,6.64,0,0,1-.68.72c-.05,0-.38.26-.38.32l.11-.08-.14.1-.19.13-.44.26-.27.14c.16-.07.08,0,0,0s-.2.06,0,0l-.32,0a4,4,0,0,0-.84.13,1.25,1.25,0,0,0,.66,2.41c.11,0,.3-.09.08,0,.11,0,.25,0,.36,0a3.36,3.36,0,0,0,.84-.15,5.21,5.21,0,0,0,1.29-.65,8.21,8.21,0,0,0,1.81-1.62,8.78,8.78,0,0,0,1.95-4.71,1.26,1.26,0,0,0-1.25-1.25,1.28,1.28,0,0,0-1.25,1.25Z"/><path d="M166.28,155.15a14.47,14.47,0,0,0,.92,3.83,22.91,22.91,0,0,0,1.61,3.44,9.13,9.13,0,0,0,2.36,2.63,5.08,5.08,0,0,0,3.34,1.13,1.29,1.29,0,0,0,1.25-1.25,1.26,1.26,0,0,0-1.25-1.25c-1.63.15-3-1.51-3.72-2.83a15.55,15.55,0,0,1-2-5.7,1.29,1.29,0,0,0-1.25-1.25,1.25,1.25,0,0,0-1.25,1.25Z"/><text class="cls-6" transform="translate(94.15 165.25)">$00,00</text><path d="M152.06,79h45.66a1.88,1.88,0,0,0,0-3.75H152.06a1.88,1.88,0,0,0,0,3.75Z"/><rect class="cls-7" x="156.34" y="83.96" width="37.27" height="13.42" rx="2.23"/><rect class="cls-5" x="156.57" y="102.63" width="7.47" height="7.61"/><rect class="cls-5" x="156.57" y="111.83" width="7.47" height="7.61"/><rect class="cls-5" x="156.57" y="121.34" width="7.47" height="7.61"/><rect class="cls-5" x="166.04" y="102.57" width="7.47" height="7.61"/><rect class="cls-5" x="165.91" y="111.92" width="7.47" height="7.61"/><rect class="cls-5" x="165.91" y="121.22" width="7.47" height="7.61"/><rect class="cls-5" x="175.44" y="102.6" width="7.47" height="7.61"/><rect class="cls-5" x="175.41" y="111.9" width="7.47" height="7.61"/><rect class="cls-5" x="175.42" y="121.28" width="7.47" height="7.61"/><rect class="cls-5" x="175.69" y="130.81" width="7.47" height="7.61"/><rect class="cls-5" x="184.91" y="121.28" width="7.47" height="17.35"/><rect class="cls-5" x="184.85" y="112.09" width="7.47" height="7.61"/><rect class="cls-5" x="184.84" y="102.6" width="7.47" height="7.61"/></g></svg>