<svg xmlns="http://www.w3.org/2000/svg" viewBox="0 0 271.63 272.89"><defs><style>.cls-1{fill:#80b0ff;}.cls-2,.cls-4{fill:#fff;}.cls-2,.cls-4,.cls-5{stroke:#000;}.cls-2,.cls-4,.cls-5,.cls-6{stroke-miterlimit:10;}.cls-2{stroke-width:4px;}.cls-3{fill:#1d1d1b;}.cls-4,.cls-5{stroke-width:3px;}.cls-5{fill:#16a085;}.cls-6{stroke:#fff;stroke-width:2px;}</style></defs><g id="Capa_5" data-name="Capa 5"><rect class="cls-1" x="91.62" y="70.52" width="90.98" height="119.72" transform="matrix(0.99, -0.13, 0.13, 0.99, -15.23, 18.17)"/><rect class="cls-2" x="100.37" y="66.3" width="85.98" height="115.6" rx="7.84" transform="translate(-13.86 18.11) rotate(-6.9)"/><path class="cls-3" d="M115.25,106.08a28.6,28.6,0,0,0,4-.91c.57-.17,1.14-.32,1.68-.54a8,8,0,0,0,2.41-1.41A2.51,2.51,0,0,0,121.57,99a2.77,2.77,0,0,0-1.76.74l-.18.14.51-.39a5.28,5.28,0,0,1-1,.56l.6-.25a21.72,21.72,0,0,1-2.74.85,23.61,23.61,0,0,1-3.09.66,2.51,2.51,0,0,0-1.5,1.15,2.6,2.6,0,0,0-.25,1.93,2.56,2.56,0,0,0,1.15,1.49l.6.25a2.46,2.46,0,0,0,1.32,0Z"/><circle class="cls-4" cx="116.08" cy="93.48" r="11.47"/><path id="Icon_material-person" data-name="Icon material-person" d="M116.43,95.8a3.43,3.43,0,1,0-4.1-2.57A3.41,3.41,0,0,0,116.43,95.8Zm.39,1.67c-2.23.51-6.42,2.65-5.91,4.87l.38,1.67L124.64,101l-.38-1.67c-.51-2.22-5.22-2.32-7.44-1.81Z"/><circle class="cls-5" cx="170.63" cy="77.32" r="22.22"/><path id="Icon_awesome-share" data-name="Icon awesome-share" class="cls-6" d="M193.5,62.66l-15-7.87a1.74,1.74,0,0,0-2.36.74,1.71,1.71,0,0,0-.15,1.2l1.31,5.67C166,65.17,157.51,69.54,160,80.32c1,4.35,4.81,8,8.43,9.54a1.29,1.29,0,0,0,1.68-1.78c-5.59-9.52-1.49-13.34,9.46-16L181,78.26a1.75,1.75,0,0,0,2.1,1.3,1.78,1.78,0,0,0,1-.67l10-13.66a1.75,1.75,0,0,0-.39-2.44A1.07,1.07,0,0,0,193.5,62.66Z"/><path d="M131.55,87.68,145.35,86a1.93,1.93,0,0,0,1.88-1.87,1.9,1.9,0,0,0-1.88-1.88l-13.8,1.68a1.93,1.93,0,0,0-1.88,1.87,1.89,1.89,0,0,0,1.88,1.88Z"/><path d="M133.83,95.12l5.07-.56a2,2,0,0,0,1.32-.55,1.9,1.9,0,0,0,.55-1.33,1.88,1.88,0,0,0-.55-1.32,1.8,1.8,0,0,0-1.32-.55l-5.07.56a2,2,0,0,0-1.33.55,1.9,1.9,0,0,0-.55,1.32,1.93,1.93,0,0,0,.55,1.33,1.86,1.86,0,0,0,1.33.55Z"/><path d="M112.3,122.19l53.81-6.43a1.93,1.93,0,0,0,1.87-1.87,1.89,1.89,0,0,0-1.87-1.88l-53.81,6.43a1.93,1.93,0,0,0-1.87,1.87,1.89,1.89,0,0,0,1.87,1.88Z"/><path d="M114.7,131.88l46.3-5.31a1.88,1.88,0,0,0,0-3.75l-46.3,5.31a1.93,1.93,0,0,0-1.88,1.87,1.9,1.9,0,0,0,1.88,1.88Z"/><path d="M115.54,141.44l50.22-6a1.93,1.93,0,0,0,1.87-1.87,1.89,1.89,0,0,0-1.87-1.88l-50.22,6a1.94,1.94,0,0,0-1.88,1.88,1.89,1.89,0,0,0,1.88,1.87Z"/><path d="M117,151.83l50.22-6a1.94,1.94,0,0,0,1.88-1.87,1.89,1.89,0,0,0-1.88-1.88l-50.22,6a1.93,1.93,0,0,0-1.87,1.87,1.89,1.89,0,0,0,1.87,1.88Z"/><path d="M113.38,105.36a13.85,13.85,0,0,0,1.92.18,12.25,12.25,0,0,0,1.92-.19,13.16,13.16,0,0,0,3.18-1l-.59.25a21.69,21.69,0,0,0,3.2-1.4,2.5,2.5,0,0,0-2.52-4.32,7.23,7.23,0,0,1-1,.49l.6-.25c-.88.37-1.78.71-2.66,1.08l.6-.25a9.33,9.33,0,0,1-2.31.64l.66-.09a8.76,8.76,0,0,1-2.23,0l.66.09-.14,0a2.78,2.78,0,0,0-1.92.25,2.54,2.54,0,0,0-1.15,1.5,2.47,2.47,0,0,0,.25,1.92,2.38,2.38,0,0,0,1.49,1.15Z"/></g></svg>