<svg xmlns="http://www.w3.org/2000/svg" viewBox="0 0 271.63 272.89"><defs><style>.cls-1{fill:#80b0ff;}.cls-2{fill:#fff;stroke-width:3px;}.cls-2,.cls-4,.cls-6,.cls-7{stroke:#000;}.cls-2,.cls-3,.cls-4,.cls-5,.cls-6,.cls-7{stroke-miterlimit:10;}.cls-3{fill:#1d1d1b;stroke:#1d1d1b;stroke-width:0.75px;}.cls-4{fill:#16a085;}.cls-4,.cls-6{stroke-width:2px;}.cls-5{stroke:#fff;}.cls-6{fill:#94e1a1;}.cls-7{fill:none;}.cls-8{fill:#d40d12;}</style></defs><g id="Capa_3" data-name="Capa 3"><polygon class="cls-1" points="86.91 106.63 103.98 101.64 143.07 108.17 180.63 97.86 181.65 166.93 177.72 179.1 143.59 189.27 103.13 177.93 69.5 180.5 74.45 112.3 86.91 106.63"/><polygon class="cls-2" points="81.36 94.32 75.05 169.52 110.42 166.56 151.23 178.22 192.39 166.56 192.35 81.42 153.29 92.48 114.54 85.79 81.36 94.32"/><path id="Icon_awesome-check" data-name="Icon awesome-check" class="cls-3" d="M183,162.46l-5.35-5.34a.82.82,0,0,1,0-1.16h0l1.17-1.17a.82.82,0,0,1,1.16,0h0l3.6,3.6,7.71-7.7a.82.82,0,0,1,1.16,0h0l1.16,1.16a.82.82,0,0,1,0,1.16h0l-9.45,9.45a.82.82,0,0,1-1.16,0Z"/><ellipse class="cls-4" cx="184.51" cy="159.1" rx="12.43" ry="12.1"/><path id="Icon_awesome-check-2" data-name="Icon awesome-check" class="cls-5" d="M185,165.81l-8-8a1.23,1.23,0,0,1,0-1.74h0l1.74-1.74a1.23,1.23,0,0,1,1.74,0h0l5.39,5.39,11.53-11.53a1.23,1.23,0,0,1,1.74,0h0l1.74,1.73a1.23,1.23,0,0,1,0,1.74h0l-14.14,14.14a1.23,1.23,0,0,1-1.74,0Z"/><path class="cls-6" d="M138,92c-.12.09-.12.09.05.1a.34.34,0,0,1,.22.06s0,.07-.06.07-.11,0-.11.08,0,0-.08,0-.18-.1-.18,0a.3.3,0,0,1-.08.2c-.14.13-.25.09-.25-.1s0-.17-.34.16a1.28,1.28,0,0,1-.67.39,1.49,1.49,0,0,1-.44,0c-.16,0-.27.16-.13.24s0,.77-.14,1.09a2.52,2.52,0,0,1-1.76,1.1,2.22,2.22,0,0,0-1.29.58,3.8,3.8,0,0,1-.48.42,6.57,6.57,0,0,0-.52.43,12,12,0,0,1-1.14,1,6.26,6.26,0,0,1-1.17.08l-1.06,0-.57-.27c-.32-.15-.59-.25-.61-.21a.48.48,0,0,1-.27.06c-.13,0-.23,0-.25.09a.15.15,0,0,1-.13.1s-.14.11-.2.25a.87.87,0,0,0,0,.59c.06.34,0,.36-.14.56a.8.8,0,0,1-.57.25,2.84,2.84,0,0,1-1.47-.38c-.62-.28-.73-.28-.94,0a1.06,1.06,0,0,1-.35.3.62.62,0,0,0-.25.23,2.56,2.56,0,0,1-.86.7.61.61,0,0,0-.29.28c-.06.15-.13.2-.27.2s-.25.09-.48.33-.32.35-.24.58,0,.44,0,.22-.06-.07-.17.06a.35.35,0,0,0-.11.24.27.27,0,0,1-.09.19.48.48,0,0,0-.12.31c0,.11,0,.2-.07.2s-.06,0-.06.11-.12.4-.23.4a.09.09,0,0,0-.1.09c0,.2.14.17.39-.08s.37-.32.43-.16,0,.22-.07.22-.09,0-.07.1,0,.09-.1,0-.13,0-.1.07a.51.51,0,0,1,.05.17s.09.12.21.19.18.13.1.13-.42.49-.47.83a1.05,1.05,0,0,1-.17.46c-.17.23-.17.23,0,.27a.86.86,0,0,1,.4.62,1.44,1.44,0,0,1-.34.7,1.51,1.51,0,0,1-.43.11c-.29,0-.34,0-.31,0s-.55-.09-.76.11a.63.63,0,0,1-.32.17c-.18,0-.41.19-.41.33s-.07.14-.17.19-.16.13-.16.38,0,.32-.2.44a.44.44,0,0,0-.2.31c0,.11,0,.18-.19.25a.71.71,0,0,0-.28.26.25.25,0,0,1-.24.16q-.16,0-.12.09c0,.06,0,.11-.1.14a1.88,1.88,0,0,0-.42.3c-.17.13-.36.27-.43.31a.36.36,0,0,0-.16.2c0,.13-.17.18-.71.25-.23,0-.34.07-.33.13s0,.09-.12.11-.16.12-.09.31.06.09.2,0a.36.36,0,0,1,.18-.08,3,3,0,0,1,.21.34,1.31,1.31,0,0,1,.2.71,4,4,0,0,0,.18,1.25.2.2,0,0,1,0,.2.84.84,0,0,0-.07.33c0,.25-.21.4-.49.35s-.33-.11-.28-.38a.32.32,0,0,1,.21-.29c.22-.08.23-.48,0-.53a.28.28,0,0,1-.17-.18c0-.08-.07-.12-.12-.1s-.17,0-.09-.17,0-.3-.17-.19-.21,0-.36-.24-.45-.65-.58-.65-.34-.25-.35-.4a.37.37,0,0,0-.15-.22,3.09,3.09,0,0,1-.29-.32c-.15-.19-.15-.19-.15,0a.63.63,0,0,1-.13.31c-.19.23-.17.45.09.87a2.81,2.81,0,0,1,.27.58,1.42,1.42,0,0,0,.2.41,1.56,1.56,0,0,1,.36.77.32.32,0,0,0,.06.2s0,.1,0,.21a.81.81,0,0,0,0,.33c0,.13,0,.17-.22.23a.9.9,0,0,0-.65.55c-.23.48-.69,1.06-.84,1.06s-.16-.07-.22-.2a3.11,3.11,0,0,0-.25-.38c-.14-.18-.14-.18-.26-.07s-.12.21-.12.54v.44l-.21,0c-.19,0-.22,0-.26.25a6.87,6.87,0,0,1-.19.83c0,.11,0,.2.34.45.59.5.94,1.06.66,1.06-.12,0-.19.28-.14.46s.06.11.13.05.13,0,.25,0a.75.75,0,0,1,.31.65c0,.12,0,.23.06.23l.18,0c.08,0,.1,0,.07-.06a.19.19,0,0,1,.06-.18c.12-.1.23,0,.46.36a.83.83,0,0,1,.09.81c-.06.18-.11.23-.18.2s-.09,0,0,.09a2,2,0,0,1,.08.48l0,.35-.11-.21c-.14-.26-.25-.23-.3.09a.84.84,0,0,0,.38.8,1.13,1.13,0,0,1,.29.58,2.15,2.15,0,0,0,.25.63c.19.27.17.43-.08.71a1.83,1.83,0,0,0-.27.38c0,.13-.06.14-.16.08s-.63.07-.63.24a.65.65,0,0,1-.06.21c-.08.13.08.29.19.2s.14,0,.26.09.15.16.07.2-.13.4,0,.45.19.17.07.17-.07.13-.07.29,0,.3.13.27.24.06.06.11-.14.07-.09.74.06.78.39,1.12.3.37.17.37a.08.08,0,0,1-.07-.07s0-.06-.09-.06-.1.17-.13.69a4.33,4.33,0,0,0,0,.81c0,.06,0,.11,0,.11s-.46.38-.57.6-.11.2-.15.06,0-.14-.13,0c-.24.31,0,1,.41,1.31.12.09.22.2.22.26a.18.18,0,0,0,.1.15c.07,0,.11,0,.14-.14a1,1,0,0,1,.2-.37c.14-.17.16-.18.25-.09s.1.13,0,.27-.1.16-.14.14-.07,0-.09.06a.15.15,0,0,1-.13.1c-.15,0-.11.2.06.33a.71.71,0,0,0,.89,0s0-.06,0-.11-.06-.11,0-.15a.13.13,0,0,1,.15.05.23.23,0,0,0,.19.07c.18,0,.14.1,0,.14s-.16.09-.16.22,0,.15-.08.09-.25-.09-.25,0a2.43,2.43,0,0,1,0,.33.34.34,0,0,0,0,.31c.06.08.05.13-.09.25a.68.68,0,0,1-.34.17c-.19,0-.48.47-.36.61s0,.29-.11.29a.69.69,0,0,0-.28.18c-.1.1-.31.28-.47.41l-.29.25h.21c.11,0,.22,0,.24.06s0,.07-.15.07-.21,0-.21.1a1.17,1.17,0,0,1-.33.41c-.33.32-.39.49-.25.64s.06.1-.07.18a.38.38,0,0,0-.14.24c0,.19-.11.33-.24.33a.17.17,0,0,0-.14.08s0,.08.11.08.14,0,.14.07-.09.07-.27,0-.29,0-.19.16,0,.23-.14.09-.13-.11-.26,0a.41.41,0,0,0-.13.25c0,.13,0,.13-.09,0s-.18-.14-.18,0a.34.34,0,0,1-.09.23.28.28,0,0,0-.1.17.1.1,0,0,1-.1.09c-.14,0-.13-.06.06-.23a.45.45,0,0,0,.17-.29c0-.14,0-.14-.13,0s-.14.09-.14,0a.08.08,0,0,0-.09-.08c-.08,0-.09,0,0,.12a.55.55,0,0,1,.07.22s0,0-.11-.1c-.14-.27-.31-.23-.52.13-.12.21-.35.31-.45.21s0-.06.11-.06.31-.16.19-.27a.26.26,0,0,0-.24,0c-.12,0-.17.09-.19.25l0,.21v-.24c0-.13,0-.25.07-.26a.07.07,0,0,0,0-.11c0-.06-.08-.06-.2,0a.42.42,0,0,1-.26.07c-.07,0-.11,0-.11.05a.28.28,0,0,1-.09.18c-.13.1-.06.26.12.26s.14,0,0,.12a.53.53,0,0,1-.33.13c-.21,0-.34.11-.34.28a.5.5,0,0,1-.13.28c-.16.21-.17.39,0,.43s.23.37.13.37-.06-.06-.06-.12-.18-.22-.37-.1-.22.35-.07.35a.6.6,0,0,1,.29.17c.16.14.19.14.25.06.18-.24.23,0,.06.35s-.17.24-.12,0-.11-.37-.27-.31a.22.22,0,0,0,0,.33s0,.08,0,.17-.06.15.09.26a.36.36,0,0,1,.19.28.17.17,0,0,0,.13.18.25.25,0,0,1,0,.41,2.58,2.58,0,0,1-.77,0c-.65,0-.7,0-.8.09s-.21.28-.37.46c-.32.39-.3.52.14.77.16.09.3.22.3.28a3.79,3.79,0,0,0,.66.71,4.45,4.45,0,0,1,.66.69c0,.05.12.1.3.13.44.06.49.09.49.27s.38.47.65.47.21,0,.24.12a1.27,1.27,0,0,0,.39.35c.19.13.52.36.73.53l.37.3.41-.1.62-.15c.17-.05.22-.05.32,0s.08.15,0,.29-.05.21.11.37a1,1,0,0,0,.43.25c.22.07.24.1.21.24a.82.82,0,0,0,0,.2,1.13,1.13,0,0,0,.3.62.8.8,0,0,1,.22.23c0,.09.08.11.09.07s.33-.1.43,0a.87.87,0,0,0,.64.05c.19-.05.28,0,.37,0a.56.56,0,0,0,.27.1.75.75,0,0,1,.41.24c.2.19.27.22.34.15a.44.44,0,0,1,.26,0c.11,0,.17,0,.2-.05s.11-.09.32-.06a1.32,1.32,0,0,1,.38.1,1.39,1.39,0,0,0,.51.09l.41,0,0-.4c0-.38,0-.4.17-.39s.15,0,.15-.07.12-.18.35,0a.6.6,0,0,0,.4.13c.14,0,.17,0,.17.09s0,.13.25.12.26,0,.41.29c.27.49.49.77.6.77a.26.26,0,0,1,.19.1.7.7,0,0,0,.62.23c.24,0,.44.07,1.16.51.38.23,1,.33,1.08.16s.55-.13.83.1l.56.45c.32.25.33.25.51.14s.2-.11.29,0a1.22,1.22,0,0,1,.18.38c.09.3.15.36.39.36s.23.06.38.27a1.16,1.16,0,0,0,.41.35.57.57,0,0,1,.23.18.15.15,0,0,0,.13.1s.09,0,.08,0,0,.13.14.44a.66.66,0,0,1,0,.32c0,.15,0,.24.21.43s.29.36.09.43l-.14.05.14.08a.28.28,0,0,1,.15.23.35.35,0,0,0,.33.36.94.94,0,0,1,.38.16c.23.16.24.16.26,0s.13-.17.18,0,.28.39.38.35.14.06.21.2a.6.6,0,0,0,.7.38c.26,0,.28,0,.56.26a1.66,1.66,0,0,1,.33.49.61.61,0,0,0,.16.28.63.63,0,0,1,.17.31.8.8,0,0,0,.11.29c.05.06.05.1,0,.13a1.15,1.15,0,0,0-.17.27c-.13.24-.07.42.14.48a.18.18,0,0,1,.14.14c0,.06,0,.08.15.05s.18,0,.2,0,.52.09.62,0,.41.09.41.24a.17.17,0,0,0,.1.13c.07,0,.1.15.1.5s0,.48.11.57.09.14,0,.19a.37.37,0,0,0-.07.2.18.18,0,0,1-.14.16c-.15,0-.16.1-.05.38a.69.69,0,0,0,.64.41.33.33,0,0,1,.34.38c0,.17.23.18.46,0a.83.83,0,0,1,.41-.12c.19,0,.25,0,.29.12s0,.13.19,0a1.55,1.55,0,0,0,.18-.26c0-.06.06-.05.18,0a1,1,0,0,0,.54.11c.31,0,.39,0,.45.13s.29.16.57,0,.23-.12.38,0,.17.1.26-.11.27-.4.51-.35a.66.66,0,0,0,.71-.43,2.45,2.45,0,0,1,.36-.46c.2-.18.2-.18.26-.05a.2.2,0,0,0,.21.14.81.81,0,0,1,.31.06l.35.1c.16,0,.18.06.15.23s0,.19.06.22.14.05.18-.11l0-.15.14.16a.56.56,0,0,1,.13.3c0,.19.18.21.42,0a.43.43,0,0,1,.55,0c.12.1.35-.06.35-.24s.17-.29.41-.24.18,0,.18-.11,0-.13.31-.13a.67.67,0,0,1,.43.11,3.76,3.76,0,0,0,.43.27c.17.1.32.22.33.28a.7.7,0,0,0,.15.26l.25.27c.11.13.11.13.13,0s0-.18,0-.18a1.07,1.07,0,0,1,.49.29c0,.11.15.15.27.07s.38,0,.27.1a.36.36,0,0,0-.08.2c0,.09,0,.11.12.08.28-.12.41-.12.41,0a1.1,1.1,0,0,0,.23.38c.23.25.23.25.37.13s.15-.11.19,0a.49.49,0,0,1,.07.25c0,.12-2.42,4.21-3.09,5.22-.1.14-.09.15.07.11s.18,0,.2.06.13.1.3.1a.72.72,0,0,1,.37.09c.16.1.34.07.59-.13a.5.5,0,0,1,.7,0,.83.83,0,0,1,.35.51,1,1,0,0,0,.34.52,3.74,3.74,0,0,1,.47.49c.13.19.25.33.26.31s2.43-13.68,2.38-13.82,0-.13.09-.19.11-.15.05-.44a1.23,1.23,0,0,1,0-.58c.07-.19.07-.28,0-.37a.54.54,0,0,1-.08-.28.57.57,0,0,0-.17-.31,1.73,1.73,0,0,1-.32-.48,1.66,1.66,0,0,0-.31-.47c-.14-.13-.14-.15-.06-.35s.1-.32,0-.77c0-.28-.07-.32-.28-.42a3.79,3.79,0,0,1-.56-.35,1.09,1.09,0,0,0-.45-.24,1,1,0,0,1-.42-.3c-.21-.21-.29-.33-.29-.47s0-.22-.07-.23a8.54,8.54,0,0,1-.07-1.6c0-1.37,0-1.56.12-1.69a.26.26,0,0,1,.24-.11.24.24,0,0,0,.19-.05.76.76,0,0,1,.38-.07.52.52,0,0,0,.51-.22c.19-.21.21-.21.37-.13s.19.07.48-.15.32-.22.45-.16a.84.84,0,0,1,.3.27c.17.22.29.25.38.09s.07-.09.14,0,.4.2.4,0,.06-.09.15-.09a.57.57,0,0,0,.24-.06c.08-.05.06-.1-.11-.25s-.2-.2-.09-.3.09-.13,0-.22-.06-.13,0-.17a.14.14,0,0,0,0-.27c-.07,0-.1-.09-.07-.19s0-.17-.05-.2a.89.89,0,0,1-.17-.26c-.05-.13-.13-.21-.21-.21a.19.19,0,0,1-.16-.07c-.06-.1-.3-.07-.44,0s-.14.09-.2,0a.75.75,0,0,0-.39-.08.71.71,0,0,1-.35-.06c-.06-.09-.32-.08-.42,0s-.08.06-.08,0a.22.22,0,0,0-.12-.16c-.11-.07-.15-.06-.28.08a.58.58,0,0,1-.2.15,10.52,10.52,0,0,1-.06-1.55c0-1.5,0-1.55.13-1.51a.16.16,0,0,0,.17,0,.74.74,0,0,1,.37-.07c.22,0,.37,0,.43-.1a.34.34,0,0,1,.28-.07,4.78,4.78,0,0,1,.7.17c.07,0,1.45.07,3.07.09,2.67,0,2.92,0,2.79-.07A.28.28,0,0,1,155,145c0-.05-.06-.08-.12-.07s-.12,0-.14-.11a.25.25,0,0,0-.09-.17s0-.1,0-.19a.61.61,0,0,0,.11-.3c0-.18.13-.26.2-.13a.44.44,0,0,0,.22.14.93.93,0,0,1,.37.32,1.07,1.07,0,0,0,.75.55c.16,0,.17,0,.17-.29s0-.3.17-.35.16-.09.16-.13.07-.06.16-.06c.29,0,1.23-.71,1.23-.93s.21-.23.35-.23a.7.7,0,0,1,.3.1c.16.1.17.11.15.57a1.39,1.39,0,0,0,.57,1.29c.31.29.34.34.37.71a2.16,2.16,0,0,0,.16.58,2.53,2.53,0,0,1,.14,1l0,.77.17,0h.35a1,1,0,0,0,.37-.09c.18-.1.2-.12.13-.24a.62.62,0,0,1,0-.37.58.58,0,0,0-.1-.44,3,3,0,0,1-.21-.64,3.17,3.17,0,0,0-.31-.8,3.17,3.17,0,0,1-.28-.78,2.22,2.22,0,0,0-.17-.56.22.22,0,0,1,0-.3.57.57,0,0,0-.26-.67,1,1,0,0,1-.26-.36c-.08-.2-.07-.26,0-.39a.45.45,0,0,0-.18-.62,7.55,7.55,0,0,1-.66-.73c-.38-.45-.53-.6-.63-.57s-.15-.06-.27-.35c-.19-.46-.17-.44-.29-.34s-.14.05-.29-.06-.21-.12-.45,0-.25.08-.28,0,.19-.3.59-.65.83-.75,1.07-1a2.87,2.87,0,0,1,.52-.44s.06-.07.06-.16a.23.23,0,0,1,.09-.2c.12,0,.29-.55.2-.59s-.31-.23-.53-.82c-.28-.79-.38-.9-.69-.81a.81.81,0,0,1-.24,0,1,1,0,0,1-.07-.27,1,1,0,0,0-.15-.41,3.39,3.39,0,0,1-.3-1,1,1,0,0,0-.19-.39l-.15-.18.12-.39.13-.4-.2-.4a1,1,0,0,0-.34-.43c-.16,0-.16-.19,0-.7s.16-.45.07-.75a.68.68,0,0,1,0-.48,4.42,4.42,0,0,0,0-1.42l0-.67.22-.16a1.78,1.78,0,0,1,.42-.23.62.62,0,0,0,.4-.66c0-.86,0-1,.13-1.36.23-.46.52-.76.68-.71s.13,0,.09-.2a.88.88,0,0,0-.2-.41c-.11-.12-.15-.2-.11-.26s0-.41-.25-.6-.25-.17-.76-.2c-.67,0-.82,0-1.17.33l-.24.22-.27-.14a.58.58,0,0,0-.6,0,.93.93,0,0,0-.37.16,1.46,1.46,0,0,1-.58.06,1.59,1.59,0,0,0-.66.09.33.33,0,0,1-.25.06.6.6,0,0,0-.31,0,3.63,3.63,0,0,1-1.57-.22,1.11,1.11,0,0,0-.52-.1c-.31,0-.36,0-.36.12a.34.34,0,0,1-.16.23.48.48,0,0,0-.2.23c-.06.17-.25.17-.4,0a.44.44,0,0,0-.38-.11l-.26,0-1.54-2c-.85-1.11-1.61-2.07-1.69-2.11a.51.51,0,0,0-.63.06c-.11.12-.13.12-.36,0a1.19,1.19,0,0,0-.38-.1.21.21,0,0,1-.16-.1.2.2,0,0,0-.17-.1.53.53,0,0,1-.31-.19.36.36,0,0,0-.27-.16.87.87,0,0,1-.31,0,2.45,2.45,0,0,0-1.33.33c-.33.19-.62.22-.74.08s-.23-.08-.67-.07a2,2,0,0,1-.63,0,1.14,1.14,0,0,0-.46-.06,2.11,2.11,0,0,1-.56-.06.51.51,0,0,0-.37,0c-.2.06-.27,0-.37,0s-.14-.09-.42.06a.78.78,0,0,1-.8.09c-.19-.07-.27-.16-.49-.59a1.33,1.33,0,0,1-.23-.7c0-.14,0-.22-.15-.38s-.2-.2-.37-.13-.71-.05-.74-.23a.51.51,0,0,0-.09-.18.77.77,0,0,1-.06-.35,2,2,0,0,0-.06-.51.83.83,0,0,1,0-.51,1.62,1.62,0,0,0,0-.67c0-.34,0-.36.12-.41a.56.56,0,0,0,.23-.14,3.36,3.36,0,0,0,0-.9v-.82l-.29-.26a5.22,5.22,0,0,1-.58-.64,1.46,1.46,0,0,0-.37-.37s-.1-.1-.11-.24-.14-.58-.25-1a8.22,8.22,0,0,1-.25-1c0-.22-.08-.26-.28-.31s-.24,0-.33.05-.27.07-.27-.17c0-.49-.53-.86-.72-.51a2,2,0,0,1-.94.45c-.1,0-.12,0-.08-.11s.07-.27.11-.46a1,1,0,0,1,.32-.59c.16-.17.22-.28.18-.35s0-.12.18-.23a1.75,1.75,0,0,0,.59-1,.51.51,0,0,1,.22-.34l.22-.19-.13-.13c-.19-.19-.18-.4.05-.9a1.28,1.28,0,0,0,.16-.81.66.66,0,0,1,.21-.7c.15-.16.32-.4.4-.5a10.74,10.74,0,0,0,.84-1.74,2.11,2.11,0,0,1,1.33-1.63l.4-.13.6-1.18.61-1.19.88-.3c2-.71,2.15-.78,2.07-1.12,0-.11,0-.16.06-.16a.08.08,0,0,1,.09.07s.11,0,.24-.11l.42-.33c.11-.09.2-.2.2-.26a2.32,2.32,0,0,0-.26-.52,3.57,3.57,0,0,1-.3-.6.49.49,0,0,0-.12-.24,2.35,2.35,0,0,0-.81-.27.25.25,0,0,1-.21-.1.64.64,0,0,0-.38-.17l-.49-.09A.41.41,0,0,0,138,92Zm-.76,1c.1.12,0,.29-.09.29a.2.2,0,0,0-.13.1.16.16,0,0,1-.27,0s0-.11.07-.16A.39.39,0,0,0,137,93C137,92.82,137.15,92.77,137.28,92.93Zm-17,9.64c0,.07-.1.12-.14.09s0-.07,0-.13S120.35,102.42,120.27,102.57Zm-6.53,10.77c0,.13-.09.22-.15.16s0-.28.09-.28S113.74,113.27,113.74,113.34ZM113,135c0,.09,0,.13-.17.13s-.16,0,0-.13S113,134.86,113,135Zm-6.24,6.12s-.23-.14-.19-.2.08,0,.13.06S106.8,141.13,106.78,141.14Z"/><path class="cls-6" d="M107.77,138.62a.75.75,0,0,0-.22.25c-.07.13-.06.15,0,.15s.17-.1.24-.23S108,138.47,107.77,138.62Z"/><path class="cls-6" d="M107.73,140.18a.68.68,0,0,1-.37.11c-.22,0-.34.06-.33.11s.31.13.42,0a.55.55,0,0,1,.27-.1c.2,0,.24-.06.18-.15S107.76,140.09,107.73,140.18Z"/><line class="cls-7" x1="114.71" y1="86.83" x2="110.42" y2="166.56"/><line class="cls-7" x1="153.29" y1="92.48" x2="151.11" y2="177.5"/><path id="Icon_material-location-on" data-name="Icon material-location-on" class="cls-8" d="M83.35,71.06a11.67,11.67,0,0,0-9.7,13.36v0c1.39,8.65,15,19.59,15,19.59s9.5-14.62,8.11-23.28a11.67,11.67,0,0,0-13.36-9.7Zm2.5,15.66a4.18,4.18,0,1,1,3.46-4.78A4.19,4.19,0,0,1,85.85,86.72Z"/></g></svg>