<svg xmlns="http://www.w3.org/2000/svg" viewBox="0 0 271.63 272.89"><defs><style>.cls-1{fill:#80b0ff;}.cls-2{fill:#fff;stroke-width:4px;}.cls-2,.cls-3,.cls-5{stroke:#000;}.cls-2,.cls-3,.cls-5,.cls-6,.cls-7{stroke-miterlimit:10;}.cls-3{fill:#ffb20d;stroke-width:3px;}.cls-4{font-size:37.88px;font-family:Aileron-Bold, Aileron;font-weight:700;}.cls-5{fill:none;}.cls-6,.cls-7{stroke:#fff;}.cls-6{stroke-width:2px;}</style></defs><g id="Capa_6" data-name="Capa 6"><rect class="cls-1" x="65.22" y="115.91" width="159.13" height="69.51" rx="12"/><rect class="cls-2" x="57.47" y="106.77" width="159.13" height="69.51" rx="12"/><circle class="cls-3" cx="67.52" cy="102.31" r="23.55"/><text class="cls-4" transform="translate(70.23 153.29)">Soat</text><path d="M156.23,151.18h3.23a.63.63,0,0,0,.63-.62.65.65,0,0,0-.63-.63h-3.23a.63.63,0,1,0,0,1.25Z"/><ellipse class="cls-5" cx="165.8" cy="152.27" rx="4.76" ry="5.18"/><ellipse class="cls-5" cx="165.75" cy="152.25" rx="1.73" ry="1.87"/><path d="M155.66,154.67h3.4a.63.63,0,1,0,0-1.25h-3.4a.62.62,0,0,0-.62.62.63.63,0,0,0,.62.63Z"/><path d="M172.31,154.6h11.9a.63.63,0,0,0,0-1.25h-11.9a.63.63,0,0,0,0,1.25Z"/><path d="M155.62,128.39v21.92a.63.63,0,0,0,1.25,0V128.39a.63.63,0,0,0-1.25,0Z"/><path d="M156.27,129H186a.63.63,0,0,0,0-1.25H156.27a.63.63,0,0,0,0,1.25Z"/><path d="M185.4,129.16v21.3a.63.63,0,0,0,1.25,0v-21.3a.63.63,0,0,0-1.25,0Z"/><path d="M172.65,151.15H186a.63.63,0,0,0,0-1.25H172.65a.63.63,0,0,0,0,1.25Z"/><ellipse class="cls-5" cx="192.78" cy="152.27" rx="5.13" ry="5.18"/><circle class="cls-5" cx="192.79" cy="152.23" r="1.87"/><path d="M199.36,134.32v7.16a.63.63,0,0,0,1.25,0v-7.16a.63.63,0,0,0-1.25,0Z"/><path d="M192.08,133.48v6.82a.63.63,0,0,0,1.25,0v-6.82a.63.63,0,0,0-1.25,0Z"/><path d="M186.08,134.13h16.56a.63.63,0,0,0,0-1.25H186.08a.63.63,0,0,0,0,1.25Z"/><path d="M192.71,140.9c2.12.33,4.21.85,6.29,1.32,1.77.41,3.55.79,5.31,1.26a.63.63,0,0,0,.33-1.21c-1.75-.46-3.53-.85-5.3-1.25-2.09-.48-4.18-1-6.29-1.32-.79-.12-1.13,1.08-.34,1.2Z"/><path class="cls-5" d="M186.44,128.2c11.56-.29,12.78-.11,16.57,5.24,1.75,2.47,1.65,7,2,8.65l-.13,11.71"/><path d="M199.52,154.51h5.35a.63.63,0,0,0,0-1.25h-5.35a.63.63,0,0,0,0,1.25Z"/><path d="M204.55,150.08H201.2a.62.62,0,0,0-.62.62.63.63,0,0,0,.62.63h1a.63.63,0,0,0,0-1.25h-1a.62.62,0,0,0-.62.62.63.63,0,0,0,.62.63h3.35a.63.63,0,1,0,0-1.25Z"/><polygon class="cls-6" points="69.68 102.96 62.5 103.03 57.4 69.28 73.91 69.28 69.68 102.96"/><circle class="cls-7" cx="66.16" cy="108.06" r="6.46"/></g></svg>