<svg xmlns="http://www.w3.org/2000/svg" viewBox="0 0 271.63 272.89"><defs><style>.cls-1{fill:#80b0ff;}.cls-2,.cls-8{fill:#fff;}.cls-2,.cls-3,.cls-4,.cls-5,.cls-6{stroke:#000;stroke-miterlimit:10;}.cls-2{stroke-width:4px;}.cls-3,.cls-5{fill:none;}.cls-3,.cls-4{stroke-width:3px;}.cls-4,.cls-6{fill:#94e1a1;}.cls-5,.cls-6{stroke-width:2px;}.cls-7{font-size:20.12px;font-family:Aileron-Bold, Aileron;font-weight:700;}</style></defs><g id="Capa_7" data-name="Capa 7"><rect class="cls-1" x="103.44" y="69.99" width="70.42" height="118.33" rx="5.42" transform="translate(14.32 -13.84) rotate(6.03)"/><path class="cls-2" d="M156.54,188.08l-54-5.28a4.26,4.26,0,0,1-3.75-4.67l9.7-104.51a4.2,4.2,0,0,1,4.53-3.85l54,5.29a4.26,4.26,0,0,1,3.75,4.66l-9.7,104.51A4.2,4.2,0,0,1,156.54,188.08Z"/><line class="cls-3" x1="98.41" y1="167.97" x2="160.98" y2="174.38"/><path d="M128.12,183.14a5,5,0,1,0-5-5,5.06,5.06,0,0,0,5,5Z"/><polygon class="cls-4" points="149.88 130.47 112.07 144.39 76.82 73.77 120.75 56.57 149.88 130.47"/><path class="cls-5" d="M86.69,70.09a20.2,20.2,0,0,1-1.54,9,16.34,16.34,0,0,1-3.47,5.12"/><polygon class="cls-4" points="150.44 132 112.33 143.09 81.86 65.82 121.3 52.82 150.44 132"/><path class="cls-5" d="M92.81,62.51A20.18,20.18,0,0,1,90,71.22a16.21,16.21,0,0,1-4.18,4.55"/><path class="cls-5" d="M124.52,62a20,20,0,0,1-9-1.67,16.25,16.25,0,0,1-5.07-3.54"/><polygon class="cls-4" points="151.26 132.55 112.29 144.04 90.23 66.71 130.63 55.84 151.26 132.55"/><text/><circle class="cls-6" cx="120.92" cy="99.53" r="12.92"/><text class="cls-7" transform="translate(112.69 95.89) rotate(73.16)">$</text><path class="cls-5" d="M100.72,64a20.17,20.17,0,0,1-2.84,8.72,16.21,16.21,0,0,1-4.18,4.55"/><path class="cls-5" d="M133.46,65.31a19.93,19.93,0,0,1-8.83-2.43,16.34,16.34,0,0,1-4.75-4"/><path class="cls-5" d="M110.11,135A20.1,20.1,0,0,1,119,137a16.21,16.21,0,0,1,4.91,3.76"/><path class="cls-5" d="M142.07,134.88a20.21,20.21,0,0,1,2.18-8.9,16.47,16.47,0,0,1,3.82-4.86"/><line class="cls-3" x1="138.44" y1="82.88" x2="169.65" y2="86.18"/><g id="Capa_2-2" data-name="Capa 2"><g id="Capa_1-2" data-name="Capa 1"><path id="Trazado_332" data-name="Trazado 332" d="M113.92,153.5a3.65,3.65,0,0,1,.31-.36,1.87,1.87,0,0,1,1.18-.56,1.94,1.94,0,0,1,2,1.75,4,4,0,0,1,0,.85c-.07.82-.17,1.65-.25,2.47l-.15,1.44c0,.31-.07.62-.1.94a.38.38,0,0,1-.39.36h0q-.58,0-1.17-.12a.36.36,0,0,1-.33-.4v0c.11-1,.21-2,.32-3.06l.1-1a.61.61,0,0,0,0-.19.4.4,0,0,0-.44-.38h0a.34.34,0,0,0-.33.34v0l-.42,4.13a.77.77,0,0,1,0,.15.32.32,0,0,1-.35.26h-.07l-1.14-.12-.13,0a.31.31,0,0,1-.22-.34.76.76,0,0,1,0-.15c.13-1.33.27-2.66.41-4v-.07a.43.43,0,0,0-.34-.49.33.33,0,0,0-.14,0,.37.37,0,0,0-.32.33s0,.08,0,.12c-.1,1-.21,2.08-.31,3.13l-.09.93a.58.58,0,0,1-.07.21.34.34,0,0,1-.35.18l-1.17-.12a.39.39,0,0,1-.32-.44v0l.48-4.64c0-.2.05-.4.08-.6a2.21,2.21,0,0,1,.88-1.44,1.78,1.78,0,0,1,1.53-.27,1.89,1.89,0,0,1,1.23,1Z"/><path id="Trazado_333" data-name="Trazado 333" d="M140.76,162.86a.32.32,0,0,1-.14,0l-.93-.09a2.64,2.64,0,0,1-.49-.08,1,1,0,0,1-.67-.55,3.13,3.13,0,0,1-.19-.54c-.11-.36-.2-.72-.31-1.08a1.36,1.36,0,0,1-.05-.6c.05-.53.1-1.07.16-1.6,0-.11,0-.12.14-.11a1.22,1.22,0,0,0,.33,0,.4.4,0,0,0,.33-.29.9.9,0,0,0,0-.43.3.3,0,0,0-.21-.27,1.1,1.1,0,0,0-.26-.06l-.46,0c-.08,0-.09,0-.1.09s-.05.46-.07.7l-.33,3.25c0,.32-.07.63-.09.95a.4.4,0,0,1-.4.39h0l-1.25-.13a.41.41,0,0,1-.36-.44v0l.69-6.73a.59.59,0,0,1,0-.13.36.36,0,0,1,.35-.3h.1l2.31.24a2.32,2.32,0,0,1,1.13.39,2.5,2.5,0,0,1,1,1.82,2.54,2.54,0,0,1-.54,2,3,3,0,0,1-.45.43l-.08.06a.14.14,0,0,0,0,.16l0,.12.75,2.75C140.73,162.73,140.74,162.8,140.76,162.86Z"/><path id="Trazado_334" data-name="Trazado 334" d="M153.14,160.24a4.5,4.5,0,0,1-.68,2,3.4,3.4,0,0,1-1.6,1.36,2.62,2.62,0,0,1-3-.8,4.1,4.1,0,0,1-.89-2.14,4.34,4.34,0,0,1,0-1.08,4,4,0,0,1,1.85-3.08,2.51,2.51,0,0,1,1.62-.36,2.66,2.66,0,0,1,2,1.23,3.92,3.92,0,0,1,.71,2c0,.11,0,.22,0,.33S153.15,160.05,153.14,160.24Z"/><path id="Trazado_335" data-name="Trazado 335" d="M117.58,156.51a4,4,0,0,1,1.89-3,2.55,2.55,0,0,1,3,.33,3.63,3.63,0,0,1,1.12,2,4.45,4.45,0,0,1,0,1.78,4.13,4.13,0,0,1-1.3,2.42,2.74,2.74,0,0,1-1.78.74,2.56,2.56,0,0,1-2-.86,3.69,3.69,0,0,1-.94-1.94A5.49,5.49,0,0,1,117.58,156.51Z"/><path id="Trazado_336" data-name="Trazado 336" d="M129.13,157.35l-.73-.08c-.18,0-.2,0-.25-.23s-.06-.19-.1-.28a1.12,1.12,0,0,0-1.52-.64,1.36,1.36,0,0,0-.36.27,1.77,1.77,0,0,0-.5,1.22,1.72,1.72,0,0,0,.29,1,1.13,1.13,0,0,0,.78.51,1.07,1.07,0,0,0,.87-.25,1.58,1.58,0,0,0,.28-.3c.07-.11.15-.22.22-.34a.17.17,0,0,1,.19-.09l.46,0,1.07.11c.12,0,.12,0,.12.15a2.34,2.34,0,0,1-.18.64,3.85,3.85,0,0,1-.82,1.34,2.92,2.92,0,0,1-1.69.95,2.52,2.52,0,0,1-2.33-.81,3.83,3.83,0,0,1-1-2.4,4.81,4.81,0,0,1,.15-1.69,4,4,0,0,1,1-1.82,2.88,2.88,0,0,1,1.21-.77,2.69,2.69,0,0,1,3.07,1.16,4,4,0,0,1,.67,1.9,1.51,1.51,0,0,1,0,.3c0,.16,0,.18-.17.16l-.38,0Z"/><path id="Trazado_337" data-name="Trazado 337" d="M145.78,156.93l-.09.9c0,.13,0,.15-.15.13l-.63-.06a1.73,1.73,0,0,0-.75,0,1.53,1.53,0,0,0-1,1.15,1.7,1.7,0,0,0,.17,1.27,1.23,1.23,0,0,0,.76.6,1.81,1.81,0,0,0,.73.06.34.34,0,0,0,.29-.34.31.31,0,0,0-.25-.36h0l-.37-.05h-.07c-.18,0-.24-.11-.22-.31s.06-.63.1-1c0-.12,0-.14.14-.12l1.7.17a.18.18,0,0,1,.15.08,3.09,3.09,0,0,1,.39,1.19,2.5,2.5,0,0,1-1.15,2.46,2.53,2.53,0,0,1-1.24.43,2.49,2.49,0,0,1-1.11-.2,3.56,3.56,0,0,1-2.15-2.9,4.42,4.42,0,0,1,0-1.15,3.85,3.85,0,0,1,2.6-3.27,3,3,0,0,1,1.82,0,2.79,2.79,0,0,1,.37.14c.11,0,.12.06.11.18l-.09.91Z"/><path id="Trazado_338" data-name="Trazado 338" d="M134.86,159.4l-.25,2.39a.51.51,0,0,1,0,.17.36.36,0,0,1-.37.23l-1.11-.11a.38.38,0,0,1-.32-.43h0c.09-.82.17-1.64.26-2.46.06-.64.13-1.28.19-1.92a.91.91,0,0,0,0-.23.35.35,0,0,0-.12-.23.5.5,0,0,0-.51-.07.36.36,0,0,0-.22.3c0,.32-.06.64-.1.95,0,.11,0,.13.11.14l.22,0c.11,0,.16.08.15.21l-.12,1.17c0,.11-.07.16-.19.16l-.18,0c-.13,0-.17,0-.18.15,0,.58-.11,1.15-.17,1.73a.4.4,0,0,1-.07.21.34.34,0,0,1-.34.17l-1.13-.12a.39.39,0,0,1-.34-.43v0c.11-1,.21-2,.31-3,0-.45.09-.89.15-1.34a3.75,3.75,0,0,1,.19-.93,2.39,2.39,0,0,1,1.71-1.6,1.94,1.94,0,0,1,1.52.26,2.39,2.39,0,0,1,1.14,2,3.42,3.42,0,0,1,0,.64c-.08.7-.15,1.41-.22,2.11Z"/><path id="Trazado_339" data-name="Trazado 339" class="cls-8" d="M148.79,159.81a1.7,1.7,0,0,1,.62-1.18,1.09,1.09,0,0,1,1.58.22,1.65,1.65,0,0,1,.33.94,1.83,1.83,0,0,1-.4,1.26,1.22,1.22,0,0,1-.73.46,1,1,0,0,1-.94-.3,1.52,1.52,0,0,1-.46-1.06A1.93,1.93,0,0,1,148.79,159.81Z"/><path id="Trazado_340" data-name="Trazado 340" class="cls-8" d="M119.37,156.88a1.62,1.62,0,0,1,.59-1.15,1.07,1.07,0,0,1,1.51.07,1.59,1.59,0,0,1,.42,1.08,1.8,1.8,0,0,1-.35,1.19,1.27,1.27,0,0,1-.81.51,1.07,1.07,0,0,1-1.07-.48A1.75,1.75,0,0,1,119.37,156.88Z"/></g></g></g></svg>