<svg xmlns="http://www.w3.org/2000/svg" viewBox="0 0 271.63 272.89"><defs><style>.cls-1{fill:#80b0ff;}.cls-2,.cls-3{fill:#fff;}.cls-3,.cls-4,.cls-5{stroke:#000;stroke-miterlimit:10;}.cls-3,.cls-5{stroke-width:4px;}.cls-4,.cls-5{fill:none;}.cls-4{stroke-width:3px;}</style></defs><g id="Capa_1" data-name="Capa 1"><polygon class="cls-1" points="51.47 85.76 165.29 87.3 165.29 172.52 49.52 173.29 47.96 85.37 51.47 85.76"/><polygon class="cls-2" points="56.74 93.3 160.82 94.73 160.82 173.5 54.96 174.22 53.53 92.95 56.74 93.3"/><path d="M54.77,176.74H66.52a2.5,2.5,0,0,0,0-5H54.77a2.5,2.5,0,0,0,0,5Z"/><ellipse class="cls-3" cx="89.58" cy="180.45" rx="17.32" ry="18.82"/><ellipse class="cls-4" cx="89.39" cy="180.39" rx="6.3" ry="6.79"/><path d="M52.7,189.4H65.06a2.5,2.5,0,0,0,0-5H52.7a2.5,2.5,0,0,0,0,5Z"/><path d="M113.24,189.17h43.29c3.22,0,3.23-5,0-5H113.24c-3.22,0-3.22,5,0,5Z"/><path d="M52.32,93.64v79.68c0,3.22,5,3.22,5,0V93.64c0-3.22-5-3.23-5,0Z"/><polygon class="cls-1" points="165.17 94.22 164.22 172.31 172.06 172.31 211.27 185.71 232.89 185 231.46 144.55 186.32 136.09 187.98 112.33 225.52 110.45 211.74 96.81 198.2 92.11 163.98 92.81 165.17 94.22"/><path d="M54.92,95.91H163.18c3.22,0,3.22-5,0-5H54.92c-3.22,0-3.22,5,0,5Z"/><path d="M114.47,176.6h48.41c3.21,0,3.22-5,0-5H114.47c-3.22,0-3.23,5,0,5Z"/><ellipse class="cls-3" cx="187.69" cy="180.44" rx="18.65" ry="18.82"/><circle class="cls-4" cx="187.71" cy="180.32" r="6.79"/><path class="cls-1" d="M214,112.5l1.14.14-.66-.09a41.82,41.82,0,0,1,4.3.83,2.65,2.65,0,0,0,1.93-.25,2.56,2.56,0,0,0,1.14-1.5,2.48,2.48,0,0,0-.25-1.92,2.56,2.56,0,0,0-1.49-1.15A45.12,45.12,0,0,0,214,107.5a2.49,2.49,0,0,0-1.76.74,2.53,2.53,0,0,0-.74,1.76,2.5,2.5,0,0,0,.74,1.77l.5.39a2.43,2.43,0,0,0,1.26.34Z"/><path d="M212,112.14v29.07a1.88,1.88,0,0,0,3.75,0V112.14a1.88,1.88,0,0,0-3.75,0Z"/><path d="M185.54,112.14v24.79a1.88,1.88,0,0,0,3.75,0V112.14a1.88,1.88,0,0,0-3.75,0Z"/><path d="M160.6,94.39v79.48c0,3.22,5,3.23,5,0V94.39c0-3.22-5-3.22-5,0Z"/><path d="M163.32,114.1h60.21a1.88,1.88,0,0,0,0-3.75H163.32a1.88,1.88,0,0,0,0,3.75Z"/><path d="M187.54,138.73c5.71.82,11.38,2.08,17,3.26q9.8,2,19.56,4.22c1.93.43,3.87.85,5.78,1.32,2.35.59,3.35-3,1-3.61-11.26-2.81-22.7-5.09-34.09-7.32-2.75-.54-5.5-1.09-8.27-1.48a1.94,1.94,0,0,0-2.31,1.31,1.88,1.88,0,0,0,1.31,2.3Z"/><path class="cls-5" d="M163,93c42-1,48.06-.41,61.85,19,6.35,9,6,25.5,7.12,31.44l-.5,42.57"/><path d="M212.18,188.84H231.1c3.21,0,3.22-5,0-5H212.18c-3.22,0-3.22,5,0,5Z"/><path d="M230.49,172.27H218.3a2.5,2.5,0,0,0,0,5h3.44a2.5,2.5,0,0,0,0-5H218.3v5h12.19a2.5,2.5,0,0,0,0-5Z"/></g><g id="Capa_2" data-name="Capa 2"><g id="Capa_2-2" data-name="Capa 2"><g id="Capa_1-2" data-name="Capa 1"><path id="Trazado_332" data-name="Trazado 332" d="M74.32,129a7.11,7.11,0,0,1,.5-.72A3.48,3.48,0,0,1,76.9,127a3.63,3.63,0,0,1,1.9.21A3.45,3.45,0,0,1,81,129.88a7.39,7.39,0,0,1,.18,1.56c0,1.54,0,3.08,0,4.62,0,.89,0,1.79,0,2.68,0,.59,0,1.18,0,1.76a.7.7,0,0,1-.64.74H78.29a.67.67,0,0,1-.68-.68s0-.05,0-.08c0-1.91,0-3.82,0-5.72v-1.85a1.47,1.47,0,0,0,0-.36.75.75,0,0,0-.9-.61h0a.64.64,0,0,0-.54.7v7.76a1.32,1.32,0,0,1,0,.28.6.6,0,0,1-.59.56H73.24l-.25,0a.59.59,0,0,1-.48-.58v-.29q0-3.72,0-7.45v-.14a.8.8,0,0,0-.74-.84.79.79,0,0,0-.78.7,1.62,1.62,0,0,0,0,.22c0,2,0,3.9,0,5.85v1.74a.89.89,0,0,1-.07.4.66.66,0,0,1-.62.4H68.13a.72.72,0,0,1-.68-.75v0q0-4.34,0-8.68c0-.37,0-.75,0-1.12a4.06,4.06,0,0,1,1.35-2.83,3.35,3.35,0,0,1,2.78-.8,3.54,3.54,0,0,1,2.46,1.62Z"/><path id="Trazado_333" data-name="Trazado 333" d="M125.74,141.23a.75.75,0,0,1-.26,0l-1.74,0a7.11,7.11,0,0,1-.92-.06,1.79,1.79,0,0,1-1.33-.89,5.69,5.69,0,0,1-.47-1c-.26-.65-.5-1.31-.77-2a2.87,2.87,0,0,1-.22-1.09c0-1,0-2,0-3,0-.2,0-.24.24-.23a2.07,2.07,0,0,0,.61-.06.69.69,0,0,0,.55-.58,1.84,1.84,0,0,0,0-.81.59.59,0,0,0-.44-.46,2.14,2.14,0,0,0-.5-.06c-.29,0-.57,0-.86,0s-.16,0-.16.18c0,.43,0,.87,0,1.31v6.07c0,.6,0,1.19,0,1.78a.73.73,0,0,1-.66.8H116.4a.74.74,0,0,1-.74-.74V127.87a1.93,1.93,0,0,1,0-.24.66.66,0,0,1,.6-.62h4.5a4.31,4.31,0,0,1,2.16.52,4.64,4.64,0,0,1,2.28,3.17,4.75,4.75,0,0,1-.64,3.73,5.66,5.66,0,0,1-.74.87l-.13.13a.26.26,0,0,0-.07.31l.08.21,1.91,4.95Z"/><path id="Trazado_334" data-name="Trazado 334" d="M148.14,134a8.31,8.31,0,0,1-.86,3.87,6.25,6.25,0,0,1-2.71,2.81,4.84,4.84,0,0,1-5.65-.91,7.41,7.41,0,0,1-2.06-3.78,8.47,8.47,0,0,1-.21-2,7.42,7.42,0,0,1,2.84-6,4.6,4.6,0,0,1,2.93-1,5,5,0,0,1,3.89,1.9,7.48,7.48,0,0,1,1.68,3.5c0,.2.07.4.1.6C148.12,133.35,148.14,133.69,148.14,134Z"/><path id="Trazado_335" data-name="Trazado 335" d="M81.66,133.87a7.39,7.39,0,0,1,2.92-6,4.76,4.76,0,0,1,5.7,0,6.8,6.8,0,0,1,2.47,3.52,8.45,8.45,0,0,1,.38,3.28,7.67,7.67,0,0,1-1.94,4.71A5.09,5.09,0,0,1,88,141.19a4.75,4.75,0,0,1-3.89-1.2A7,7,0,0,1,82,136.57,9.78,9.78,0,0,1,81.66,133.87Z"/><path id="Trazado_336" data-name="Trazado 336" d="M103.18,133.23h-1.36c-.33,0-.39,0-.51-.37a4.74,4.74,0,0,0-.24-.51,2.07,2.07,0,0,0-3.54-.33,3.25,3.25,0,0,0-.69,2.36,3,3,0,0,0,.72,1.83,2.12,2.12,0,0,0,1.54.8,2,2,0,0,0,1.56-.63,2.51,2.51,0,0,0,.46-.61c.12-.22.25-.45.36-.67a.31.31,0,0,1,.32-.21c.29,0,.57,0,.86,0h2c.22,0,.23,0,.23.24a4,4,0,0,1-.19,1.23,7.67,7.67,0,0,1-1.26,2.64,5.49,5.49,0,0,1-3,2.07A4.69,4.69,0,0,1,96,140a7,7,0,0,1-2.36-4.25,9.25,9.25,0,0,1,0-3.15,7.74,7.74,0,0,1,1.6-3.57,5.48,5.48,0,0,1,2.09-1.65,5,5,0,0,1,5.9,1.56,7.52,7.52,0,0,1,1.61,3.39,2.62,2.62,0,0,1,.09.56c0,.29,0,.33-.3.33h-1.43Z"/><path id="Trazado_337" data-name="Trazado 337" d="M133.91,129.31V131c0,.24,0,.27-.25.28h-1.17a3.3,3.3,0,0,0-1.39.25,2.81,2.81,0,0,0-1.67,2.31,3.17,3.17,0,0,0,.56,2.32,2.33,2.33,0,0,0,1.52,1,3.17,3.17,0,0,0,1.37,0,.64.64,0,0,0,.47-.69.59.59,0,0,0-.54-.62h0l-.69,0H132c-.34,0-.47-.15-.47-.52v-1.78c0-.22,0-.26.25-.26h3.18a.33.33,0,0,1,.29.13,5.81,5.81,0,0,1,.95,2.12,4.66,4.66,0,0,1-1.66,4.77,4.76,4.76,0,0,1-2.23,1,4.33,4.33,0,0,1-2.08-.16,6.6,6.6,0,0,1-4.53-4.95,8.44,8.44,0,0,1-.27-2.12,7.18,7.18,0,0,1,4.18-6.56,5.65,5.65,0,0,1,3.37-.34q.36.08.72.18c.21.07.23.1.23.33v1.7Z"/><path id="Trazado_338" data-name="Trazado 338" d="M114.17,136v4.46a1.12,1.12,0,0,1,0,.32.66.66,0,0,1-.62.51h-2.09a.71.71,0,0,1-.67-.74v0c0-1.53,0-3.06,0-4.59v-3.6a3.11,3.11,0,0,0,0-.43.62.62,0,0,0-.26-.39.94.94,0,0,0-1,0,.64.64,0,0,0-.34.59v1.78c0,.21,0,.23.23.23h.4c.22,0,.32.11.32.35v2.18a.3.3,0,0,1-.31.34h-.35c-.25,0-.31,0-.3.31,0,1.08,0,2.16,0,3.24a.84.84,0,0,1-.08.41.66.66,0,0,1-.6.37h-2.13a.71.71,0,0,1-.69-.73v0c0-1.9,0-3.8,0-5.69,0-.84,0-1.67,0-2.5a6.92,6.92,0,0,1,.17-1.76,4.45,4.45,0,0,1,2.86-3.28,3.61,3.61,0,0,1,2.88.19,4.5,4.5,0,0,1,2.47,3.39,5.87,5.87,0,0,1,.09,1.18c0,1.32,0,2.63,0,3.95Z"/><path id="Trazado_339" data-name="Trazado 339" class="cls-2" d="M140,134.06a3.1,3.1,0,0,1,.92-2.29,2,2,0,0,1,3,.09,3.09,3.09,0,0,1,.79,1.69,3.33,3.33,0,0,1-.5,2.39,2.28,2.28,0,0,1-1.27,1,1.91,1.91,0,0,1-1.79-.37,2.83,2.83,0,0,1-1.06-1.87A4.6,4.6,0,0,1,140,134.06Z"/><path id="Trazado_340" data-name="Trazado 340" class="cls-2" d="M85,134.22a3.06,3.06,0,0,1,.88-2.24,2,2,0,0,1,2.8-.15,2.94,2.94,0,0,1,1,1.92,3.32,3.32,0,0,1-.44,2.25,2.22,2.22,0,0,1-1.39,1.11,2,2,0,0,1-2.07-.69A3.24,3.24,0,0,1,85,134.22Z"/></g></g></g></svg>