<svg xmlns="http://www.w3.org/2000/svg" viewBox="0 0 271.63 272.89"><defs><style>.cls-1{fill:#ff6200;}.cls-2,.cls-5,.cls-6{fill:#fff;}.cls-2,.cls-6{stroke:#000;}.cls-2,.cls-5,.cls-6,.cls-7{stroke-miterlimit:10;}.cls-2{stroke-width:3px;}.cls-3{fill:#16a085;}.cls-4{fill:#80b0ff;}.cls-5{stroke:#1d1d1b;}.cls-7{stroke:#fff;}</style></defs><g id="Capa_2" data-name="Capa 2"><rect class="cls-1" x="145.27" y="83.09" width="55.6" height="89.28" transform="translate(24.97 -28.26) rotate(10.06)"/><rect class="cls-2" x="133.79" y="79.08" width="60.83" height="86.42" rx="3.22" transform="translate(25.66 -28.46) rotate(10.74)"/><rect class="cls-3" x="68.29" y="89.61" width="56.48" height="80.96" transform="translate(-29.71 28.58) rotate(-14.62)"/><rect class="cls-2" x="71.53" y="75.56" width="60.83" height="86.42" rx="1.95" transform="translate(-27.2 30.33) rotate(-14.96)"/><rect class="cls-2" x="94.08" y="90.62" width="69.46" height="98.43" rx="4.1"/><rect class="cls-4" x="97.3" y="93.44" width="63.1" height="92.99"/><circle class="cls-2" cx="109.76" cy="109.04" r="9.84"/><path d="M125.72,107.86h21.66a1.25,1.25,0,0,0,0-2.5H125.72a1.25,1.25,0,0,0,0,2.5Z"/><path d="M115.41,133h33.74a1.25,1.25,0,0,0,0-2.5H115.41a1.25,1.25,0,0,0,0,2.5Z"/><path d="M115.63,138.06H141.8a1.25,1.25,0,0,0,0-2.5H115.63a1.25,1.25,0,0,0,0,2.5Z"/><path d="M114.81,154.32h30.34a1.25,1.25,0,0,0,0-2.5H114.81a1.25,1.25,0,0,0,0,2.5Z"/><path d="M114.82,148.55h34.06a1.25,1.25,0,0,0,0-2.5H114.82a1.25,1.25,0,0,0,0,2.5Z"/><path d="M126.41,112.5h9.65a1.25,1.25,0,0,0,0-2.5h-9.65a1.25,1.25,0,0,0,0,2.5Z"/><path id="Icon_material-person" data-name="Icon material-person" d="M109.49,112.19a2.94,2.94,0,1,0-2.94-2.94A2.94,2.94,0,0,0,109.49,112.19Zm0,1.47c-2,0-5.88,1-5.88,2.94v1.47h11.76V116.6c0-2-3.92-2.94-5.88-2.94Z"/><rect class="cls-5" x="101.74" y="145.33" width="9.84" height="8.96" rx="1.31"/><rect class="cls-6" x="101.86" y="130.1" width="9.84" height="8.96" rx="1.31"/><rect class="cls-7" x="119.49" y="84.08" width="22.79" height="10.08" rx="2.91"/><path d="M115.5,163.61h40.37a1.25,1.25,0,0,0,0-2.5H115.5a1.25,1.25,0,0,0,0,2.5Z"/><path d="M115.9,168.85h40.83a1.25,1.25,0,0,0,0-2.5H115.9a1.25,1.25,0,0,0,0,2.5Z"/><rect class="cls-6" x="101.86" y="160.56" width="9.84" height="8.96" rx="1.31"/></g></svg>