<svg xmlns="http://www.w3.org/2000/svg" width="216.983" height="36.044" viewBox="0 0 216.983 36.044">
  <g id="Grupo_231" data-name="Grupo 231" transform="translate(-58 -54.478)">
    <g id="Capa_2" data-name="Capa 2" transform="translate(58 54.478)">
      <g id="Capa_1" data-name="Capa 1" transform="translate(0)">
        <path id="Trazado_332" data-name="Trazado 332" d="M185.325,320.819a20.175,20.175,0,0,1,1.35-1.835,9.525,9.525,0,0,1,5.579-3.158,10.169,10.169,0,0,1,5.117.529,8.8,8.8,0,0,1,5.892,6.659,17.584,17.584,0,0,1,.5,3.926c.082,3.879.034,7.759.045,11.638,0,2.249.011,4.5,0,6.747,0,1.476-.029,2.951-.055,4.427a1.8,1.8,0,0,1-1.856,1.861q-2.937.024-5.872,0a1.784,1.784,0,0,1-1.85-1.9q.007-7.209.023-14.418v-4.635a3.513,3.513,0,0,0-.094-.918,2.019,2.019,0,0,0-2.531-1.5,1.607,1.607,0,0,0-1.443,1.862q.01,9.707.019,19.415a3.168,3.168,0,0,1-.054.715,1.55,1.55,0,0,1-1.592,1.39c-.12.009-.24,0-.36,0h-5.714a3.194,3.194,0,0,1-.666-.05,1.467,1.467,0,0,1-1.285-1.452c-.02-.239-.017-.479-.017-.72-.012-6.249-.029-12.5.026-18.746v-.36a2.042,2.042,0,0,0-2.636-2.017,1.726,1.726,0,0,0-1.437,1.653c-.018.186-.016.376-.016.565.006,4.91,0,9.819.028,14.729.008,1.458.009,2.917.023,4.375a2.081,2.081,0,0,1-.2,1,1.768,1.768,0,0,1-1.665,1.011q-2.935.017-5.872,0a1.864,1.864,0,0,1-1.857-1.965c.031-7.279.027-14.557.034-21.836a27.993,27.993,0,0,1,.1-2.829,9.946,9.946,0,0,1,3.626-7.135,9.418,9.418,0,0,1,7.485-2,9.578,9.578,0,0,1,6.6,4.071C184.9,320.2,185.089,320.482,185.325,320.819Z" transform="translate(-166.86 -315.698)" fill="#001d4d"/>
        <path id="Trazado_333" data-name="Trazado 333" d="M1361.859,352.215a2.3,2.3,0,0,1-.695.033c-1.563.012-3.125.016-4.687.029a19.908,19.908,0,0,1-2.467-.141,4.911,4.911,0,0,1-3.593-2.24,14.282,14.282,0,0,1-1.24-2.423c-.713-1.634-1.351-3.3-2.084-4.923a6.669,6.669,0,0,1-.582-2.75q0-3.759.009-7.518c0-.516.12-.608.659-.588a5.958,5.958,0,0,0,1.636-.134,1.825,1.825,0,0,0,1.47-1.477,4.252,4.252,0,0,0-.04-2.039,1.517,1.517,0,0,0-1.2-1.142,6.693,6.693,0,0,0-1.332-.164c-.777-.02-1.545-.012-2.318,0-.405,0-.432.033-.434.451-.007,1.1-.007,2.2-.006,3.3q0,7.646.009,15.293c0,1.494-.021,2.988.033,4.48a1.889,1.889,0,0,1-1.987,2q-3.141-.037-6.284,0a1.914,1.914,0,0,1-1.988-2q.026-15.835,0-31.669a4.806,4.806,0,0,1,.026-.616,1.77,1.77,0,0,1,1.607-1.554c.17-.017.343-.018.514-.018h11.591a12.246,12.246,0,0,1,5.816,1.306,11.69,11.69,0,0,1,6.116,7.991,11.272,11.272,0,0,1-1.707,9.371,13.083,13.083,0,0,1-2,2.2c-.111.1-.23.208-.34.315a.665.665,0,0,0-.184.793c.074.173.134.352.206.526l5.149,12.446C1361.651,351.632,1361.749,351.921,1361.859,352.215Z" transform="translate(-1205.118 -316.322)" fill="#ff6200"/>
        <path id="Trazado_334" data-name="Trazado 334" d="M1874.19,334.079a19.761,19.761,0,0,1-2.323,9.725,16.268,16.268,0,0,1-7.3,7.093,13.718,13.718,0,0,1-15.2-2.313,18.266,18.266,0,0,1-5.517-9.51,19.591,19.591,0,0,1-.584-5.049c.155-6.264,2.5-11.465,7.658-15.205a12.977,12.977,0,0,1,7.88-2.442,13.716,13.716,0,0,1,10.433,4.78,18.278,18.278,0,0,1,4.527,8.813c.1.5.183,1.011.257,1.521A23.168,23.168,0,0,1,1874.19,334.079Z" transform="translate(-1657.207 -316.303)" fill="#ff6200"/>
        <path id="Trazado_335" data-name="Trazado 335" d="M511.134,333.513a18.131,18.131,0,0,1,7.841-14.975,13.527,13.527,0,0,1,15.34.082,17.235,17.235,0,0,1,6.633,8.866,19.919,19.919,0,0,1,1.026,8.264,18.746,18.746,0,0,1-5.216,11.857,13.98,13.98,0,0,1-8.5,4.329A13.411,13.411,0,0,1,517.79,348.9a17.472,17.472,0,0,1-5.673-8.589A23.375,23.375,0,0,1,511.134,333.513Z" transform="translate(-472.923 -316.138)" fill="#001d4d"/>
        <path id="Trazado_336" data-name="Trazado 336" d="M824.15,332.009h-3.663c-.888,0-1.032-.1-1.376-.935a12.26,12.26,0,0,0-.62-1.3,5.785,5.785,0,0,0-9.545-.82,7.85,7.85,0,0,0-1.846,5.929,7.457,7.457,0,0,0,1.93,4.607,5.816,5.816,0,0,0,4.142,2.023,5.658,5.658,0,0,0,4.212-1.6,6.6,6.6,0,0,0,1.221-1.523c.333-.564.666-1.122.966-1.7a.862.862,0,0,1,.864-.513c.777.014,1.545,0,2.317,0h5.409c.581,0,.609.036.628.607a9.654,9.654,0,0,1-.522,3.079,18.538,18.538,0,0,1-3.4,6.64,14.846,14.846,0,0,1-7.946,5.23,13.261,13.261,0,0,1-12-2.673,17.555,17.555,0,0,1-6.36-10.69,21.669,21.669,0,0,1-.111-7.929,18.582,18.582,0,0,1,4.3-8.982,14.484,14.484,0,0,1,5.612-4.157,14.014,14.014,0,0,1,15.864,3.928,18.281,18.281,0,0,1,4.329,8.52,8.032,8.032,0,0,1,.24,1.417c.036.739-.032.824-.794.832-.635.007-1.27,0-1.906,0Z" transform="translate(-728.079 -316.246)" fill="#001d4d"/>
        <path id="Trazado_337" data-name="Trazado 337" d="M1593.735,322.021v4.218c0,.612-.072.693-.676.694-1.046,0-2.094-.02-3.141-.011a9.262,9.262,0,0,0-3.732.623,7.186,7.186,0,0,0-4.5,5.827,7.68,7.68,0,0,0,1.507,5.822,6.326,6.326,0,0,0,4.1,2.442,9.379,9.379,0,0,0,3.676-.064,1.606,1.606,0,0,0,1.257-1.747,1.5,1.5,0,0,0-1.477-1.543c-.616-.046-1.236-.042-1.854-.061a3.239,3.239,0,0,1-.36-.013c-.925-.057-1.265-.4-1.269-1.317-.007-1.494,0-2.987,0-4.48,0-.555.111-.649.673-.65h8.546a.838.838,0,0,1,.766.323,13.853,13.853,0,0,1,2.563,5.34c.94,4.89-.455,8.942-4.467,12a13.049,13.049,0,0,1-5.977,2.595,12.353,12.353,0,0,1-5.6-.414,17.084,17.084,0,0,1-12.188-12.451,19.4,19.4,0,0,1-.718-5.336,18.033,18.033,0,0,1,11.239-16.5,15.966,15.966,0,0,1,9.045-.855,19.824,19.824,0,0,1,1.953.455c.555.159.622.24.624.828v4.273Z" transform="translate(-1415.038 -316.121)" fill="#ff6200"/>
        <path id="Trazado_338" data-name="Trazado 338" d="M1115.4,339.352v11.224a2.761,2.761,0,0,1-.091.815,1.767,1.767,0,0,1-1.691,1.274c-1.871.021-3.742.031-5.614,0a1.829,1.829,0,0,1-1.787-1.925c.026-3.844.01-7.689.011-11.534q0-4.531.009-9.062a4.722,4.722,0,0,0-.09-1.074,1.427,1.427,0,0,0-.693-.979,2.6,2.6,0,0,0-2.606-.08,1.592,1.592,0,0,0-.918,1.493c0,1.494-.007,2.987,0,4.479,0,.513.078.576.616.576.36,0,.721-.013,1.081.008.579.033.85.3.854.877q.019,2.755,0,5.509c0,.542-.283.81-.836.838-.307.017-.617-.014-.926-.027-.675-.028-.832.111-.815.8.07,2.713.012,5.424.034,8.135a2.006,2.006,0,0,1-.222,1.042,1.776,1.776,0,0,1-1.613.932c-1.906.011-3.812.008-5.717,0a1.863,1.863,0,0,1-1.872-1.949c.028-4.773.01-9.545.016-14.318,0-2.093-.005-4.188.039-6.281a17.216,17.216,0,0,1,.484-4.44,11.483,11.483,0,0,1,7.685-8.261,10.342,10.342,0,0,1,7.729.474,11.364,11.364,0,0,1,6.644,8.546,14.393,14.393,0,0,1,.257,2.969q.008,4.968,0,9.938Z" transform="translate(-989.782 -316.754)" fill="#001d4d"/>
        <path id="Trazado_339" data-name="Trazado 339" d="M1925.24,418.135a7.5,7.5,0,0,1,2.485-5.771,5.651,5.651,0,0,1,7.939.234,7.369,7.369,0,0,1,2.126,4.249,8.019,8.019,0,0,1-1.332,6.021,6.034,6.034,0,0,1-3.415,2.5,5.46,5.46,0,0,1-4.829-.918,7.192,7.192,0,0,1-2.842-4.728A9.848,9.848,0,0,1,1925.24,418.135Z" transform="translate(-1730.079 -400.286)" fill="#fff"/>
        <path id="Trazado_340" data-name="Trazado 340" d="M592.835,421.714a7.439,7.439,0,0,1,2.347-5.632,5.61,5.61,0,0,1,7.547-.372,7.255,7.255,0,0,1,2.676,4.832,8.031,8.031,0,0,1-1.173,5.668,6.007,6.007,0,0,1-3.749,2.775,5.565,5.565,0,0,1-5.568-1.736A7.833,7.833,0,0,1,592.835,421.714Z" transform="translate(-545.556 -403.47)" fill="#fff"/>
      </g>
    </g>
  </g>
</svg>
