<svg xmlns="http://www.w3.org/2000/svg" viewBox="0 0 271.63 272.89"><defs><style>.cls-1{fill:#1d1d1b;}.cls-2,.cls-4{fill:none;}.cls-2,.cls-3,.cls-4{stroke:#1d1d1b;stroke-miterlimit:10;}.cls-2{stroke-width:3px;}.cls-3{fill:#fff;}.cls-3,.cls-4{stroke-width:2px;}</style></defs><g id="Capa_9" data-name="Capa 9"><path class="cls-1" d="M70.85,77.81v123c0,3.22,5,3.22,5,0v-123c0-3.22-5-3.22-5,0Z"/><path class="cls-1" d="M63.73,194.67H210.05c3.21,0,3.22-5,0-5H63.73c-3.22,0-3.22,5,0,5Z"/><line class="cls-2" x1="110.66" y1="130.68" x2="145.64" y2="157.33"/><line class="cls-2" x1="159.89" y1="156.08" x2="191.57" y2="113.22"/><line class="cls-2" x1="78.05" y1="99.5" x2="103.17" y2="123.55"/><circle class="cls-3" cx="153.17" cy="157.95" r="8.2"/><circle class="cls-4" cx="194.33" cy="106.18" r="7.93"/><circle class="cls-3" cx="106.56" cy="127.3" r="6.24"/><path class="cls-1" d="M90.08,160l5.23-5.22A1.25,1.25,0,0,0,93.54,153l-5.22,5.23A1.24,1.24,0,0,0,90.08,160Z"/><path class="cls-1" d="M81.71,168l5.23-5.23A1.25,1.25,0,1,0,85.17,161l-5.23,5.22A1.25,1.25,0,1,0,81.71,168Z"/><path class="cls-1" d="M98.92,151.53l5.23-5.23a1.25,1.25,0,0,0-1.77-1.77l-5.23,5.23a1.25,1.25,0,0,0,1.77,1.77Z"/><path class="cls-1" d="M107.59,143.83l5.23-5.23a1.25,1.25,0,1,0-1.77-1.77l-5.22,5.23a1.25,1.25,0,0,0,1.76,1.77Z"/><path class="cls-1" d="M120.29,132.14l5.23-5.23a1.27,1.27,0,0,0,0-1.77,1.29,1.29,0,0,0-1.77,0l-5.23,5.23a1.25,1.25,0,0,0,1.77,1.77Z"/><path class="cls-1" d="M128.62,124.25l5.23-5.23a1.25,1.25,0,0,0-1.77-1.76l-5.22,5.22a1.25,1.25,0,0,0,1.76,1.77Z"/><path class="cls-1" d="M137.36,116.23l5.22-5.22a1.25,1.25,0,0,0-1.76-1.77l-5.23,5.23a1.25,1.25,0,0,0,1.77,1.76Z"/><path class="cls-1" d="M145.57,108.67c.59-.42,1.18-.85,1.8-1.21a3.59,3.59,0,0,1,.38-.21l.21-.11.1,0c-.18.06.06,0,.1,0l.21-.07.41-.1c.24,0,0,0,0,0h.17a3,3,0,0,1,.42,0c.27,0-.18,0,0,0l.21.05.45.14c-.16-.06-.11,0,0,0l.23.12a5.55,5.55,0,0,1,.48.29l.2.14c.32.23-.08-.07.1.08s.39.34.58.51a1.25,1.25,0,0,0,1.77-1.77c-1.33-1.23-3-2.28-4.85-2a9.72,9.72,0,0,0-4.18,2.09,1.28,1.28,0,0,0-.45,1.71,1.26,1.26,0,0,0,1.71.45Z"/><path class="cls-1" d="M154.27,111l4.37,6a1.25,1.25,0,1,0,2.16-1.26l-4.37-6a1.25,1.25,0,0,0-2.16,1.26Z"/><path class="cls-1" d="M160.6,120.36l4.36,6a1.28,1.28,0,0,0,1.71.45,1.26,1.26,0,0,0,.45-1.71l-4.37-6a1.27,1.27,0,0,0-1.71-.44,1.25,1.25,0,0,0-.44,1.71Z"/><path class="cls-1" d="M166.74,129.62l4.37,6a1.29,1.29,0,0,0,1.71.45,1.27,1.27,0,0,0,.45-1.71l-4.37-6a1.29,1.29,0,0,0-1.71-.45,1.27,1.27,0,0,0-.45,1.71Z"/><path class="cls-1" d="M174.88,141.34l4.37,6a1.25,1.25,0,0,0,2.16-1.27l-4.37-6a1.25,1.25,0,1,0-2.16,1.26Z"/><path class="cls-1" d="M180.94,150.73l4.37,6a1.25,1.25,0,1,0,2.16-1.26l-4.37-6a1.25,1.25,0,0,0-2.16,1.26Z"/><path class="cls-1" d="M188.19,161.42l4.37,6a1.25,1.25,0,0,0,2.16-1.27l-4.37-6a1.25,1.25,0,0,0-2.16,1.26Z"/></g></svg>