<svg xmlns="http://www.w3.org/2000/svg" viewBox="0 0 271.63 272.89"><defs><style>.cls-1,.cls-3,.cls-4{fill:#fff;}.cls-1,.cls-2,.cls-3,.cls-4{stroke:#1d1d1b;}.cls-1,.cls-2,.cls-3,.cls-4,.cls-5{stroke-miterlimit:10;}.cls-1{stroke-width:4px;}.cls-2,.cls-5{fill:#1d1d1b;}.cls-2{stroke-width:0.75px;}.cls-3{stroke-width:2px;}.cls-4{stroke-width:3px;}.cls-5{stroke:#fff;}</style></defs><g id="Capa_3" data-name="Capa 3"><polygon class="cls-1" points="68.21 96.54 59.48 200.74 108.49 196.64 165.04 212.8 222.07 196.64 222.01 78.66 167.89 93.98 114.19 84.72 68.21 96.54"/><path id="Icon_awesome-check" data-name="Icon awesome-check" class="cls-2" d="M210.64,190.34l-7.41-7.41a1.15,1.15,0,0,1,0-1.61h0l1.61-1.61a1.15,1.15,0,0,1,1.61,0h0l5,5L222.12,174a1.13,1.13,0,0,1,1.61,0h0l1.61,1.61a1.13,1.13,0,0,1,0,1.61h0l-13.09,13.1a1.15,1.15,0,0,1-1.61,0Z"/><path id="Icon_material-location-on" data-name="Icon material-location-on" class="cls-3" d="M72.51,69.62A16.18,16.18,0,0,0,59.07,88.14v0c1.92,12,20.74,27.15,20.74,27.15S93,95.05,91.06,83.05A16.19,16.19,0,0,0,72.54,69.61ZM76,91.32a5.78,5.78,0,1,1,4.8-6.62A5.8,5.8,0,0,1,76,91.32Z"/><line class="cls-1" x1="114.19" y1="84.72" x2="108.66" y2="196.65"/><line class="cls-4" x1="168.1" y1="93.55" x2="165.28" y2="212.49"/><path d="M102.34,88.53a14.8,14.8,0,0,0,5,4.46c1.9,1.13,4,2.06,5.63,3.59,1.83,1.72,2.84,4.12,4.29,6.14a29.86,29.86,0,0,0,5.06,5.53A23.76,23.76,0,0,0,136.49,114a19.81,19.81,0,0,0,7.71-1.15,29.17,29.17,0,0,0,6.83-4.12,13.27,13.27,0,0,1,15.25-.47c2,1.34,3.9-1.91,1.9-3.24a16.93,16.93,0,0,0-14.19-2,22.05,22.05,0,0,0-6.56,3.74,17,17,0,0,1-7,3.23,18.6,18.6,0,0,1-13.85-3.19,25,25,0,0,1-5.33-5c-1.59-2-2.68-4.25-4.2-6.25a18.15,18.15,0,0,0-5.86-4.72c-2-1.15-4.32-2.24-5.65-4.24s-4.58-.13-3.24,1.89Z"/><path d="M168.25,108.49c3.93-1.49,8.06-2.32,12.05-3.6a34.65,34.65,0,0,0,5.72-2.33c1.93-1,3.6-2.37,5.43-3.54,6.86-4.4,15.35-5,22.56-8.74a21.45,21.45,0,0,0,9.22-8.42c1.18-2.11-2.06-4-3.23-1.89-3.61,6.5-11.3,8.73-17.95,10.72A54.6,54.6,0,0,0,190.84,95c-1.84,1-3.46,2.37-5.24,3.48a25.91,25.91,0,0,1-5.29,2.45c-4.3,1.49-8.8,2.32-13.05,3.94-2.24.85-1.27,4.47,1,3.61Z"/><path d="M98.63,198.12a8.2,8.2,0,0,1,2.67-3.86,5.19,5.19,0,0,1,2.17-1.54c.7-.17,1.29.28,1.91.55,3.67,1.6,7.53,1.09,11.36.56s7,2.38,10,4.35l5.3,3.46c1.23.8,2.71,1.66,3.15,3.15.69,2.31,4.31,1.33,3.62-1a8.88,8.88,0,0,0-3.76-4.65c-1.89-1.34-3.87-2.55-5.81-3.81-3.84-2.51-7.72-5.87-12.6-5.25a32.78,32.78,0,0,1-6.63.52,10.36,10.36,0,0,1-3.14-.75,7.61,7.61,0,0,0-3-.94c-2.24,0-4.07,1.47-5.56,3A11.2,11.2,0,0,0,95,197.13c-.53,2.35,3.08,3.35,3.62,1Z"/><path d="M62.65,144c.13,2.56.07,5.21.44,7.75.35,2.38,2,3.83,3.1,5.85,2.08,3.85,1,8.67.36,12.75a34.85,34.85,0,0,0-.66,7.42,22.44,22.44,0,0,0,1.83,7.06c1.8,4.72,0,9.42-1.84,13.83a1.94,1.94,0,0,0,.67,2.57,1.91,1.91,0,0,0,2.57-.68c1.51-3.58,3-7.25,3.16-11.19a14.25,14.25,0,0,0-1-5.74,18.45,18.45,0,0,1-1.6-5.62c-.46-7.33,3.37-14.64,0-21.76-.8-1.7-2.62-3.13-2.93-5A69.4,69.4,0,0,1,66.4,144c-.11-2.4-3.87-2.41-3.75,0Z"/><ellipse class="cls-4" cx="212.68" cy="185.68" rx="17.23" ry="16.77"/><path id="Icon_awesome-check-2" data-name="Icon awesome-check" class="cls-5" d="M213.35,195,202.27,183.9a1.71,1.71,0,0,1,0-2.41h0l2.42-2.41a1.7,1.7,0,0,1,2.4,0h0l7.47,7.47,16-16a1.7,1.7,0,0,1,2.41,0h0l2.41,2.41a1.7,1.7,0,0,1,0,2.41h0L215.76,195a1.7,1.7,0,0,1-2.41,0Z"/></g></svg>