<svg xmlns="http://www.w3.org/2000/svg" viewBox="0 0 271.63 272.89"><defs><style>.cls-1,.cls-2,.cls-4{fill:#fff;stroke:#1d1d1b;}.cls-1,.cls-2,.cls-4,.cls-5{stroke-miterlimit:10;}.cls-1{stroke-width:3px;}.cls-2{stroke-width:4px;}.cls-3,.cls-5{fill:#1d1d1b;}.cls-5{stroke:#fff;}</style></defs><g id="Capa_2" data-name="Capa 2"><rect class="cls-1" x="135.79" y="84.13" width="72.67" height="103.25" rx="3.22" transform="translate(28.31 -29.7) rotate(10.74)"/><rect class="cls-1" x="69.93" y="77.66" width="72.67" height="103.25" rx="1.95" transform="translate(-29.77 31.8) rotate(-14.96)"/><rect class="cls-2" x="96.87" y="95.65" width="82.98" height="117.59" rx="4.1"/><circle class="cls-1" cx="115.61" cy="117.65" r="11.76"/><path class="cls-3" d="M134.67,116.63h25.87a1.88,1.88,0,0,0,0-3.75H134.67a1.88,1.88,0,0,0,0,3.75Z"/><path class="cls-3" d="M122.35,146.69h40.31a1.88,1.88,0,0,0,0-3.75H122.35a1.88,1.88,0,0,0,0,3.75Z"/><path class="cls-3" d="M122.61,152.7h31.26a1.88,1.88,0,0,0,0-3.75H122.61a1.88,1.88,0,0,0,0,3.75Z"/><path class="cls-3" d="M121.63,172.13h36.26a1.88,1.88,0,0,0,0-3.75H121.63a1.88,1.88,0,0,0,0,3.75Z"/><path class="cls-3" d="M121.64,165.24h40.69a1.88,1.88,0,0,0,0-3.75H121.64a1.88,1.88,0,0,0,0,3.75Z"/><path class="cls-3" d="M135.49,122.17H147a1.88,1.88,0,0,0,0-3.75H135.49a1.88,1.88,0,0,0,0,3.75Z"/><path id="Icon_material-person" data-name="Icon material-person" class="cls-3" d="M115.28,121.41a3.51,3.51,0,1,0-3.51-3.51A3.51,3.51,0,0,0,115.28,121.41Zm0,1.76c-2.34,0-7,1.18-7,3.51v1.76h14v-1.76c0-2.33-4.68-3.51-7-3.51Z"/><rect class="cls-4" x="106.01" y="161.01" width="11.75" height="10.7" rx="1.31"/><rect class="cls-4" x="106.16" y="142.81" width="11.75" height="10.7" rx="1.31"/><rect class="cls-5" x="127.22" y="87.83" width="27.23" height="12.04" rx="2.91"/><path class="cls-3" d="M122.46,183.23h48.23a1.88,1.88,0,0,0,0-3.75H122.46a1.88,1.88,0,0,0,0,3.75Z"/><path class="cls-3" d="M122.93,189.49h48.78a1.88,1.88,0,0,0,0-3.75H122.93a1.88,1.88,0,0,0,0,3.75Z"/><rect class="cls-4" x="106.36" y="177.67" width="11.75" height="10.7" rx="1.31"/></g></svg>