<svg xmlns="http://www.w3.org/2000/svg" width="180.869" height="30.045" viewBox="0 0 180.869 30.045">
  <g id="Capa_2" data-name="Capa 2" transform="translate(-166.86 -315.698)">
    <g id="Capa_1" data-name="Capa 1" transform="translate(166.86 315.698)">
      <path id="Trazado_332" data-name="Trazado 332" d="M182.252,319.967a16.816,16.816,0,0,1,1.125-1.529,7.939,7.939,0,0,1,4.651-2.632,8.477,8.477,0,0,1,4.265.441A7.337,7.337,0,0,1,197.2,321.8a14.657,14.657,0,0,1,.419,3.272c.068,3.233.029,6.468.038,9.7,0,1.874.009,3.75,0,5.624,0,1.23-.024,2.46-.046,3.691a1.5,1.5,0,0,1-1.547,1.551q-2.448.02-4.9,0a1.487,1.487,0,0,1-1.542-1.588q.006-6.009.019-12.018v-3.863a2.929,2.929,0,0,0-.079-.765,1.683,1.683,0,0,0-2.109-1.251,1.34,1.34,0,0,0-1.2,1.552q.008,8.091.016,16.184a2.642,2.642,0,0,1-.045.6,1.292,1.292,0,0,1-1.327,1.158c-.1.007-.2,0-.3,0h-4.763a2.661,2.661,0,0,1-.555-.042,1.223,1.223,0,0,1-1.071-1.21c-.017-.2-.014-.4-.014-.6-.01-5.209-.024-10.417.021-15.626v-.3a1.7,1.7,0,0,0-2.2-1.681,1.439,1.439,0,0,0-1.2,1.378c-.015.155-.013.314-.013.471,0,4.093,0,8.185.023,12.278.006,1.216.007,2.431.019,3.647a1.734,1.734,0,0,1-.166.833,1.474,1.474,0,0,1-1.388.843q-2.446.014-4.9,0A1.554,1.554,0,0,1,166.86,344c.026-6.067.022-12.134.029-18.2a23.333,23.333,0,0,1,.08-2.358,8.291,8.291,0,0,1,3.023-5.948,7.851,7.851,0,0,1,6.239-1.665,7.984,7.984,0,0,1,5.5,3.393C181.895,319.45,182.055,319.686,182.252,319.967Z" transform="translate(-166.86 -315.698)" fill="#001d4d"/>
      <path id="Trazado_333" data-name="Trazado 333" d="M1357.345,346.254a1.918,1.918,0,0,1-.579.028c-1.3.01-2.605.013-3.907.024a16.6,16.6,0,0,1-2.057-.118,4.094,4.094,0,0,1-2.995-1.867,11.92,11.92,0,0,1-1.033-2.02c-.594-1.362-1.126-2.75-1.737-4.1a5.559,5.559,0,0,1-.485-2.293q0-3.133.008-6.267c0-.43.1-.507.549-.49a4.968,4.968,0,0,0,1.364-.112,1.521,1.521,0,0,0,1.225-1.231,3.544,3.544,0,0,0-.033-1.7,1.264,1.264,0,0,0-1-.952,5.577,5.577,0,0,0-1.11-.137c-.648-.017-1.288-.01-1.932,0-.338,0-.36.028-.362.376-.006.916-.006,1.832,0,2.748q0,6.373.007,12.748c0,1.245-.017,2.491.028,3.734a1.575,1.575,0,0,1-1.656,1.665q-2.618-.031-5.238,0a1.6,1.6,0,0,1-1.657-1.665q.021-13.2,0-26.4a3.985,3.985,0,0,1,.022-.513,1.475,1.475,0,0,1,1.34-1.3c.142-.014.286-.015.428-.015h9.662a10.209,10.209,0,0,1,4.848,1.089,9.744,9.744,0,0,1,5.1,6.661,9.4,9.4,0,0,1-1.423,7.811,10.9,10.9,0,0,1-1.671,1.837c-.093.087-.192.173-.283.263a.554.554,0,0,0-.154.661c.062.144.112.293.172.439l4.292,10.375C1357.172,345.769,1357.254,346.009,1357.345,346.254Z" transform="translate(-1226.692 -316.335)" fill="#ff6200"/>
      <path id="Trazado_334" data-name="Trazado 334" d="M1869.044,331.133a16.473,16.473,0,0,1-1.936,8.106,13.56,13.56,0,0,1-6.083,5.913,11.435,11.435,0,0,1-12.667-1.928,15.226,15.226,0,0,1-4.6-7.927,16.331,16.331,0,0,1-.487-4.209c.13-5.222,2.085-9.557,6.384-12.675a10.818,10.818,0,0,1,6.569-2.035,11.433,11.433,0,0,1,8.7,3.985,15.235,15.235,0,0,1,3.774,7.346c.086.419.153.843.214,1.267A19.279,19.279,0,0,1,1869.044,331.133Z" transform="translate(-1688.175 -316.316)" fill="#ff6200"/>
      <path id="Trazado_335" data-name="Trazado 335" d="M511.134,330.63a15.113,15.113,0,0,1,6.536-12.482,11.275,11.275,0,0,1,12.787.068,14.367,14.367,0,0,1,5.529,7.39,16.6,16.6,0,0,1,.855,6.889,15.626,15.626,0,0,1-4.348,9.884,11.653,11.653,0,0,1-7.082,3.608,11.179,11.179,0,0,1-8.728-2.529,14.564,14.564,0,0,1-4.728-7.16A19.486,19.486,0,0,1,511.134,330.63Z" transform="translate(-479.282 -316.147)" fill="#001d4d"/>
      <path id="Trazado_336" data-name="Trazado 336" d="M819.822,329.4h-3.053c-.74,0-.86-.081-1.147-.779a10.215,10.215,0,0,0-.517-1.081,4.822,4.822,0,0,0-7.956-.684,6.544,6.544,0,0,0-1.538,4.942,6.216,6.216,0,0,0,1.609,3.84,4.848,4.848,0,0,0,3.453,1.687,4.717,4.717,0,0,0,3.511-1.334,5.5,5.5,0,0,0,1.018-1.269c.278-.47.555-.935.8-1.416a.719.719,0,0,1,.72-.427c.648.012,1.288,0,1.932,0h4.508c.484,0,.508.03.524.506a8.048,8.048,0,0,1-.435,2.566,15.452,15.452,0,0,1-2.831,5.535,12.375,12.375,0,0,1-6.623,4.359,11.054,11.054,0,0,1-10-2.228,14.634,14.634,0,0,1-5.3-8.911,18.062,18.062,0,0,1-.092-6.609,15.489,15.489,0,0,1,3.585-7.487,12.073,12.073,0,0,1,4.678-3.465,11.682,11.682,0,0,1,13.223,3.274,15.238,15.238,0,0,1,3.608,7.1,6.7,6.7,0,0,1,.2,1.181c.03.616-.027.686-.661.694-.529.006-1.058,0-1.589,0Z" transform="translate(-739.74 -316.258)" fill="#001d4d"/>
      <path id="Trazado_337" data-name="Trazado 337" d="M1589.929,321.048v3.516c0,.51-.06.577-.563.578-.872,0-1.746-.017-2.618-.009a7.72,7.72,0,0,0-3.11.519,5.99,5.99,0,0,0-3.75,4.857,6.4,6.4,0,0,0,1.256,4.853,5.273,5.273,0,0,0,3.418,2.035,7.817,7.817,0,0,0,3.064-.054,1.339,1.339,0,0,0,1.048-1.456,1.249,1.249,0,0,0-1.231-1.286c-.514-.038-1.03-.035-1.545-.051a2.7,2.7,0,0,1-.3-.011c-.771-.047-1.055-.333-1.057-1.1-.006-1.245,0-2.49,0-3.734,0-.463.093-.541.561-.542h7.124a.7.7,0,0,1,.638.269,11.546,11.546,0,0,1,2.136,4.451,9.451,9.451,0,0,1-3.724,10,10.878,10.878,0,0,1-4.982,2.163,10.3,10.3,0,0,1-4.667-.345,14.241,14.241,0,0,1-10.159-10.379,16.169,16.169,0,0,1-.6-4.448,15.032,15.032,0,0,1,9.368-13.75,13.308,13.308,0,0,1,7.539-.712,16.523,16.523,0,0,1,1.628.379c.463.132.519.2.52.69v3.562Z" transform="translate(-1440.974 -316.129)" fill="#ff6200"/>
      <path id="Trazado_338" data-name="Trazado 338" d="M1111.595,335.613v9.356a2.3,2.3,0,0,1-.076.679,1.473,1.473,0,0,1-1.41,1.062c-1.56.018-3.12.026-4.679,0a1.524,1.524,0,0,1-1.49-1.6c.022-3.2.008-6.409.009-9.614q0-3.777.007-7.554a3.937,3.937,0,0,0-.075-.9,1.19,1.19,0,0,0-.577-.816,2.164,2.164,0,0,0-2.172-.067,1.327,1.327,0,0,0-.765,1.244c0,1.245-.006,2.49,0,3.734,0,.427.065.48.514.48.3,0,.6-.011.9.007.483.028.708.247.712.731q.016,2.3,0,4.592c0,.452-.236.675-.7.7-.256.014-.514-.012-.772-.022-.562-.023-.694.093-.679.663.058,2.261.01,4.521.029,6.781a1.672,1.672,0,0,1-.185.869,1.48,1.48,0,0,1-1.344.777c-1.589.009-3.177.006-4.766,0a1.553,1.553,0,0,1-1.561-1.625c.023-3.978.009-7.956.013-11.935,0-1.745,0-3.491.032-5.235a14.352,14.352,0,0,1,.4-3.7,9.572,9.572,0,0,1,6.406-6.886,8.621,8.621,0,0,1,6.443.4,9.473,9.473,0,0,1,5.538,7.124,12,12,0,0,1,.214,2.475q.007,4.141,0,8.284Z" transform="translate(-1006.881 -316.776)" fill="#001d4d"/>
      <path id="Trazado_339" data-name="Trazado 339" d="M1925.24,416.922a6.252,6.252,0,0,1,2.071-4.811,4.71,4.71,0,0,1,6.618.2,6.144,6.144,0,0,1,1.773,3.542,6.685,6.685,0,0,1-1.11,5.019,5.031,5.031,0,0,1-2.846,2.086,4.552,4.552,0,0,1-4.026-.765,6,6,0,0,1-2.369-3.941A8.193,8.193,0,0,1,1925.24,416.922Z" transform="translate(-1762.561 -402.044)" fill="#fff"/>
      <path id="Trazado_340" data-name="Trazado 340" d="M592.835,420.5a6.2,6.2,0,0,1,1.957-4.694,4.676,4.676,0,0,1,6.291-.31,6.048,6.048,0,0,1,2.231,4.028,6.694,6.694,0,0,1-.978,4.725,5.007,5.007,0,0,1-3.125,2.313,4.639,4.639,0,0,1-4.642-1.447A6.53,6.53,0,0,1,592.835,420.5Z" transform="translate(-553.425 -405.294)" fill="#fff"/>
    </g>
  </g>
</svg>
