<svg xmlns="http://www.w3.org/2000/svg" width="1073" height="74.463" viewBox="0 0 1073 74.463">
  <g id="Grupo_231" data-name="Grupo 231" transform="translate(-58 -54.478)">
    <g id="Capa_2" data-name="Capa 2" transform="translate(58 54.478)">
      <g id="Capa_1" data-name="Capa 1" transform="translate(0)">
        <path id="Trazado_332" data-name="Trazado 332" d="M205.007,326.278a41.669,41.669,0,0,1,2.788-3.79,19.677,19.677,0,0,1,11.526-6.523,21.009,21.009,0,0,1,10.57,1.094c6.663,2.293,10.49,7.071,12.173,13.757a36.326,36.326,0,0,1,1.039,8.11c.17,8.014.071,16.029.094,24.043,0,4.646.023,9.293,0,13.939,0,3.05-.06,6.1-.115,9.146a3.725,3.725,0,0,1-3.834,3.845q-6.067.051-12.132,0a3.685,3.685,0,0,1-3.822-3.935q.014-14.893.048-29.785V346.6a7.26,7.26,0,0,0-.195-1.9,4.171,4.171,0,0,0-5.228-3.1c-2.21.548-2.981,1.532-2.981,3.847q.021,20.054.039,40.11a6.546,6.546,0,0,1-.112,1.477,3.2,3.2,0,0,1-3.288,2.871c-.248.018-.5,0-.743,0h-11.8a6.591,6.591,0,0,1-1.376-.1,3.031,3.031,0,0,1-2.655-3c-.041-.493-.034-.99-.034-1.488-.025-12.909-.06-25.818.053-38.727v-.743a4.218,4.218,0,0,0-5.446-4.166A3.566,3.566,0,0,0,186.6,345.1c-.037.385-.032.777-.032,1.167.011,10.144,0,20.285.057,30.429.016,3.013.018,6.026.048,9.039a4.3,4.3,0,0,1-.41,2.063,3.653,3.653,0,0,1-3.439,2.089q-6.062.035-12.132,0a3.851,3.851,0,0,1-3.836-4.058c.064-15.037.055-30.074.071-45.111a57.832,57.832,0,0,1,.2-5.845c.591-5.886,2.781-10.974,7.491-14.741a19.457,19.457,0,0,1,15.463-4.127,19.787,19.787,0,0,1,13.629,8.41C204.122,325,204.519,325.581,205.007,326.278Z" transform="translate(-166.86 -315.698)" fill="#001d4d"/>
        <path id="Trazado_333" data-name="Trazado 333" d="M1390.764,390.39a4.753,4.753,0,0,1-1.436.069c-3.228.025-6.457.032-9.683.06a41.146,41.146,0,0,1-5.1-.291,10.147,10.147,0,0,1-7.422-4.627,29.554,29.554,0,0,1-2.561-5.006c-1.472-3.375-2.79-6.814-4.306-10.171a13.779,13.779,0,0,1-1.2-5.682q0-7.766.019-15.532c0-1.066.247-1.256,1.362-1.215a12.31,12.31,0,0,0,3.379-.277,3.77,3.77,0,0,0,3.036-3.052,8.787,8.787,0,0,0-.083-4.212,3.133,3.133,0,0,0-2.477-2.359,13.825,13.825,0,0,0-2.751-.339c-1.605-.041-3.192-.025-4.788,0-.837,0-.892.069-.9.931-.014,2.27-.014,4.54-.012,6.81q0,15.8.018,31.594c0,3.086-.043,6.172.069,9.254a3.9,3.9,0,0,1-4.1,4.127q-6.488-.076-12.982,0a3.954,3.954,0,0,1-4.106-4.127q.053-32.713,0-65.423a9.889,9.889,0,0,1,.055-1.273,3.656,3.656,0,0,1,3.32-3.21c.351-.034.709-.037,1.062-.037h23.945a25.3,25.3,0,0,1,12.014,2.7,24.15,24.15,0,0,1,12.634,16.509,23.286,23.286,0,0,1-3.527,19.359,27.019,27.019,0,0,1-4.141,4.554c-.229.216-.475.429-.7.651a1.374,1.374,0,0,0-.381,1.639c.154.358.278.727.426,1.087q5.318,12.856,10.637,25.713C1390.336,389.186,1390.537,389.782,1390.764,390.39Z" transform="translate(-1066.957 -316.239)" fill="#ff6200"/>
        <path id="Trazado_334" data-name="Trazado 334" d="M1907.146,352.946c-.046,7.252-1.376,13.939-4.8,20.09a33.606,33.606,0,0,1-15.075,14.654,28.34,28.34,0,0,1-31.393-4.778,37.735,37.735,0,0,1-11.4-19.646,40.475,40.475,0,0,1-1.207-10.43c.321-12.941,5.168-23.686,15.821-31.413a26.811,26.811,0,0,1,16.28-5.044c8.68.041,15.782,3.545,21.553,9.876a37.76,37.76,0,0,1,9.353,18.206c.214,1.039.378,2.089.53,3.141A47.869,47.869,0,0,1,1907.146,352.946Z" transform="translate(-1458.886 -316.223)" fill="#ff6200"/>
        <path id="Trazado_335" data-name="Trazado 335" d="M511.135,351.973a37.456,37.456,0,0,1,16.2-30.936,27.945,27.945,0,0,1,31.69.17,35.606,35.606,0,0,1,13.7,18.316,41.151,41.151,0,0,1,2.119,17.073c-.794,9.373-4.157,17.671-10.777,24.5a28.88,28.88,0,0,1-17.552,8.942,27.706,27.706,0,0,1-21.632-6.269,36.094,36.094,0,0,1-11.719-17.745A48.294,48.294,0,0,1,511.135,351.973Z" transform="translate(-432.195 -316.08)" fill="#001d4d"/>
        <path id="Trazado_336" data-name="Trazado 336" d="M851.868,348.738H844.3c-1.834,0-2.132-.2-2.843-1.931a25.313,25.313,0,0,0-1.282-2.678c-3.4-6.14-13.248-9.286-19.719-1.695a16.218,16.218,0,0,0-3.813,12.249,15.406,15.406,0,0,0,3.987,9.518,12.015,12.015,0,0,0,8.557,4.18,11.69,11.69,0,0,0,8.7-3.306,13.624,13.624,0,0,0,2.522-3.146c.688-1.165,1.376-2.318,1.995-3.51a1.782,1.782,0,0,1,1.784-1.059c1.6.03,3.191,0,4.787,0h11.173c1.2,0,1.259.073,1.3,1.254a19.945,19.945,0,0,1-1.078,6.361,38.3,38.3,0,0,1-7.016,13.718c-4.356,5.274-9.708,9.144-16.415,10.8a27.4,27.4,0,0,1-24.784-5.521,36.268,36.268,0,0,1-13.139-22.085,44.766,44.766,0,0,1-.229-16.38,38.388,38.388,0,0,1,8.885-18.557,29.921,29.921,0,0,1,11.593-8.587,28.905,28.905,0,0,1,13.661-1.914c7.745.7,13.941,4.4,19.111,10.029a37.767,37.767,0,0,1,8.942,17.6,16.589,16.589,0,0,1,.5,2.928c.073,1.527-.067,1.7-1.639,1.72-1.312.014-2.623,0-3.937,0Z" transform="translate(-653.397 -316.173)" fill="#001d4d"/>
        <path id="Trazado_337" data-name="Trazado 337" d="M1618.109,328.254v8.713c0,1.263-.148,1.431-1.4,1.433-2.162,0-4.327-.041-6.489-.023a19.134,19.134,0,0,0-7.709,1.286,14.846,14.846,0,0,0-9.3,12.038,15.867,15.867,0,0,0,3.114,12.028,13.069,13.069,0,0,0,8.472,5.044,19.374,19.374,0,0,0,7.594-.133,3.319,3.319,0,0,0,2.6-3.609,3.1,3.1,0,0,0-3.052-3.187c-1.273-.094-2.552-.087-3.829-.126a6.7,6.7,0,0,1-.743-.028c-1.91-.117-2.614-.826-2.621-2.722-.014-3.086,0-6.17,0-9.254,0-1.146.23-1.341,1.39-1.344H1623.8a1.73,1.73,0,0,1,1.582.667c2.394,3.375,4.5,6.918,5.294,11.031,1.942,10.1-.94,18.474-9.229,24.788a26.957,26.957,0,0,1-12.348,5.361,25.52,25.52,0,0,1-11.567-.855c-13.021-4.029-21.553-12.485-25.178-25.722a40.077,40.077,0,0,1-1.484-11.024,37.254,37.254,0,0,1,23.218-34.077,32.983,32.983,0,0,1,18.685-1.766,40.924,40.924,0,0,1,4.034.94c1.147.328,1.286.5,1.288,1.711v8.828Z" transform="translate(-1248.943 -316.064)" fill="#ff6200"/>
        <path id="Trazado_338" data-name="Trazado 338" d="M1139.795,363.3v23.188a5.7,5.7,0,0,1-.188,1.683,3.649,3.649,0,0,1-3.494,2.632c-3.866.044-7.732.064-11.6,0a3.777,3.777,0,0,1-3.691-3.976c.054-7.94.02-15.885.022-23.828q0-9.36.019-18.722a9.758,9.758,0,0,0-.186-2.22,2.95,2.95,0,0,0-1.431-2.022,5.362,5.362,0,0,0-5.383-.165,3.289,3.289,0,0,0-1.9,3.084c0,3.086-.014,6.17,0,9.254,0,1.059.161,1.19,1.273,1.19.743,0,1.49-.027,2.233.016,1.2.069,1.756.612,1.765,1.811q.04,5.691,0,11.382c0,1.119-.584,1.674-1.726,1.731-.635.034-1.275-.03-1.913-.055-1.394-.057-1.719.229-1.683,1.644.145,5.6.026,11.205.071,16.807a4.145,4.145,0,0,1-.458,2.153,3.669,3.669,0,0,1-3.332,1.926c-3.937.023-7.874.016-11.811,0a3.848,3.848,0,0,1-3.868-4.026c.057-9.859.021-19.719.032-29.578,0-4.324-.011-8.651.08-12.975a35.568,35.568,0,0,1,1-9.172c2.4-8.38,7.525-14.273,15.876-17.066a21.367,21.367,0,0,1,15.968.979c7.658,3.439,12.006,9.543,13.725,17.655a29.743,29.743,0,0,1,.531,6.134q.016,10.263,0,20.531Z" transform="translate(-880.275 -316.614)" fill="#001d4d"/>
        <path id="Trazado_339" data-name="Trazado 339" d="M1925.24,425.9a15.5,15.5,0,0,1,5.134-11.923,11.674,11.674,0,0,1,16.4.484,15.227,15.227,0,0,1,4.393,8.777,16.567,16.567,0,0,1-2.752,12.439,12.467,12.467,0,0,1-7.054,5.171,11.281,11.281,0,0,1-9.977-1.9,14.857,14.857,0,0,1-5.87-9.768A20.322,20.322,0,0,1,1925.24,425.9Z" transform="translate(-1522.061 -389.03)" fill="#fff"/>
        <path id="Trazado_340" data-name="Trazado 340" d="M592.836,429.479a15.367,15.367,0,0,1,4.85-11.634,11.589,11.589,0,0,1,15.591-.768,14.988,14.988,0,0,1,5.528,9.983,16.59,16.59,0,0,1-2.423,11.71,12.409,12.409,0,0,1-7.746,5.732,11.5,11.5,0,0,1-11.5-3.586C594.086,437.741,592.9,433.806,592.836,429.479Z" transform="translate(-495.163 -391.79)" fill="#fff"/>
      </g>
    </g>
    <text id="innovando_en_el_transporte" data-name="innovando en el transporte" transform="translate(545 114)" font-size="49" font-family="Courgette-Regular, Courgette"><tspan x="0" y="0">Innovando en el transporte</tspan></text>
  </g>
</svg>
