<svg xmlns="http://www.w3.org/2000/svg" viewBox="0 0 271.63 272.89"><defs><style>.cls-1{fill:#fff;}.cls-2{opacity:0.49;}.cls-3{fill:#1d1d1b;}.cls-4,.cls-5{fill:none;stroke:#1d1d1b;stroke-miterlimit:10;}.cls-4{stroke-width:4px;}.cls-5{stroke-width:3px;}</style></defs><g id="Capa_11" data-name="Capa 11"><rect class="cls-1" x="56.76" y="93.55" width="104.79" height="82.69"/><g class="cls-2"><path class="cls-1" d="M106.67,36.17c3.21,0,3.22-5,0-5s-3.23,5,0,5Z"/></g><path class="cls-1" d="M223.5,116.42c2.29,4.24,3.08,9.28,3.88,14a81.2,81.2,0,0,1,.69,15.27c0,2.41,3.71,2.41,3.75,0A86.62,86.62,0,0,0,231,129.4c-.87-5.06-1.8-10.31-4.26-14.87-1.14-2.13-4.38-.24-3.24,1.89Z"/><path class="cls-1" d="M186.39,176.21a15.32,15.32,0,0,0-1.72,2.22,9.79,9.79,0,0,0-1.19,2.51,4.06,4.06,0,0,0,.92,3.54,6.49,6.49,0,0,0,2.82,2.28,7.13,7.13,0,0,0,2.71.38,5.35,5.35,0,0,0,3.28-1,5.24,5.24,0,0,0,1.6-2.09,5.33,5.33,0,0,0,.64-3.59,19.35,19.35,0,0,0-1.13-2.34,5.77,5.77,0,0,0-1.94-2.33,8.3,8.3,0,0,0-2.46-1.06,4.55,4.55,0,0,0-3.65.49,7.91,7.91,0,0,0-2,1.61,4.55,4.55,0,0,0-1.1,3.89,13.77,13.77,0,0,0,1.06,2.73,6.09,6.09,0,0,0,1.33,2.19c2.05,1.91,5.32,1,7-1a4.54,4.54,0,0,0,1.24-4.1,3.25,3.25,0,0,0-1.56-2,3.19,3.19,0,0,0-3,0,2.51,2.51,0,0,0-1.15,1.5,2.55,2.55,0,0,0,.25,1.93,2.51,2.51,0,0,0,1.49,1.14,2.76,2.76,0,0,0,1.93-.25l.08,0-.6.26.09,0-.67.09h.18l-.67-.09.17.05-.6-.25.16.1-.51-.39a.86.86,0,0,1,.14.13l-.39-.51a.83.83,0,0,1,.09.16l-.25-.6a.76.76,0,0,1,.06.2l-.09-.66a2,2,0,0,1,0,.35L189,181a3.57,3.57,0,0,1-.1.35l.25-.6a3.47,3.47,0,0,1-.42.72l.4-.51a4.84,4.84,0,0,1-.74.76l.5-.39a4.33,4.33,0,0,1-.91.53l.6-.25a3.67,3.67,0,0,1-.72.2l.66-.09a2.68,2.68,0,0,1-.49,0l.66.09a2.3,2.3,0,0,1-.35-.1l.6.25a1.67,1.67,0,0,1-.28-.18l.51.39a2.13,2.13,0,0,1-.29-.31l.39.5a13.26,13.26,0,0,1-1.2-2.59l.25.6a4.56,4.56,0,0,1-.3-1l.09.67a1.88,1.88,0,0,1,0-.53l-.09.67a2,2,0,0,1,.13-.42l-.26.6a2.83,2.83,0,0,1,.29-.47l-.39.5a4.71,4.71,0,0,1,.83-.78l-.5.39a6,6,0,0,1,1-.66l-.59.25a2.31,2.31,0,0,1,.57-.16l-.66.09h.38l-.67-.08a6.58,6.58,0,0,1,1.56.49l-.59-.26a4.39,4.39,0,0,1,.84.49l-.51-.39a2.85,2.85,0,0,1,.42.43l-.39-.51a7.32,7.32,0,0,1,.67,1.27c.2.43.47.82.67,1.25l-.25-.6a1.42,1.42,0,0,1,.07.22l-.09-.67a1.28,1.28,0,0,1,0,.39l.09-.67a6.79,6.79,0,0,1-.4,1.23l.25-.6a4.32,4.32,0,0,1-.52.94l.4-.51a2.29,2.29,0,0,1-.44.44l.51-.39a1.93,1.93,0,0,1-.36.22l.6-.25a3.45,3.45,0,0,1-.63.17l.67-.09a8.12,8.12,0,0,1-2,0l.67.09a3.77,3.77,0,0,1-.87-.25l.6.26a3.55,3.55,0,0,1-.53-.32l.51.4a4.61,4.61,0,0,1-.76-.77l.39.5a6.5,6.5,0,0,1-.68-1.05l.25.59a1,1,0,0,1-.07-.25l.09.66a1.77,1.77,0,0,1,0-.23l-.09.66a3.39,3.39,0,0,1,.15-.45l-.25.6a11.53,11.53,0,0,1,1.46-2.49l-.39.51c.22-.28.44-.54.68-.8a2.5,2.5,0,0,0-3.53-3.54Z"/><path class="cls-3" d="M161.63,95.47V175c0,3.21,5,3.22,5,0V95.47c0-3.22-5-3.22-5,0Z"/><path class="cls-1" d="M87.13,177A14,14,0,0,0,86,180.29a9,9,0,0,0-.15,3.94,3.68,3.68,0,0,0,1.71,2.21,8.3,8.3,0,0,0,1.8.67,8.39,8.39,0,0,0,2,.45,3.63,3.63,0,0,0,2.65-1,5.91,5.91,0,0,0,1.36-4.09c.07-1.07.07-2.15,0-3.22a3.5,3.5,0,0,0-1-2.66,4.29,4.29,0,0,0-2.61-1,11.83,11.83,0,0,0-3.61.2c-3.41.7-4.42,4.72-3.76,7.69a2.51,2.51,0,0,0,3.07,1.74,2.56,2.56,0,0,0,1.75-3.07,4.3,4.3,0,0,1-.09-.47l.09.66a5.83,5.83,0,0,1,0-1.32l-.09.67a5.52,5.52,0,0,1,.33-1.27l-.25.59a3.69,3.69,0,0,1,.43-.78l-.39.51a2.06,2.06,0,0,1,.39-.39l-.51.39a2.24,2.24,0,0,1,.4-.22l-.6.25a4.75,4.75,0,0,1,1-.24l-.66.09a10.13,10.13,0,0,1,2.58,0l-.66-.09a1.84,1.84,0,0,1,.56.14l-.6-.25a.51.51,0,0,1,.16.09l-.5-.39a.53.53,0,0,1,.13.13l-.39-.51a.51.51,0,0,1,.09.18l-.25-.6a1.74,1.74,0,0,1,0,.22l-.09-.66a26.31,26.31,0,0,1-.12,4.61l.08-.67a2.91,2.91,0,0,1-.2.81l.25-.6a2.39,2.39,0,0,1-.21.34l.39-.51a1.34,1.34,0,0,1-.2.21l.5-.39-.25.16.6-.25a1.77,1.77,0,0,1-.31.08l.67-.09a2.3,2.3,0,0,1-.37,0l.66.09a12.15,12.15,0,0,1-1.18-.33,10.22,10.22,0,0,1-1.07-.34l.59.25a2.53,2.53,0,0,1-.36-.2l.51.39a1.2,1.2,0,0,1-.22-.23l.39.51a.81.81,0,0,1-.1-.18l.25.6a1.56,1.56,0,0,1-.11-.41l.09.67a7.68,7.68,0,0,1,.08-1.79l-.08.67a11.84,11.84,0,0,1,.79-2.91l-.25.6c.06-.15.13-.31.2-.46a2.69,2.69,0,0,0,.25-1.93,2.56,2.56,0,0,0-1.15-1.49,2.49,2.49,0,0,0-1.92-.25,2.42,2.42,0,0,0-1.5,1.15Z"/><path class="cls-1" d="M83.48,167.58a8.49,8.49,0,0,1,1.12,2.9,5.52,5.52,0,0,1-.91,2.93c-1.16,2.19-2.24,4.56-3.61,6.62l.9-.89-.21.12L82.7,179c.58.12.45.41.14-.26a2.14,2.14,0,0,1-.18-.54,2.35,2.35,0,0,1,.43-1.81c1-1.67,2.46-3.12,3.25-4.91a4,4,0,0,0-1.89-5.5c-2.33-1-4,.71-4.89,2.64-1.86,3.84-3.56,7.75-3.93,12.05a27.18,27.18,0,0,0,.5,7,18.6,18.6,0,0,0,1.81,5.88,13.86,13.86,0,0,0,8.23,6.14c3.41,1.06,7.66,1.48,11-.1,3.65-1.74,4.86-6,6.18-9.44l2.48-6.49c.79-2.09,1.56-4.08,1.18-6.36-.59-3.64-3.44-7.22-6.1-9.63a19,19,0,0,0-4.59-3.16c-1.77-.85-3.88-1.72-5.88-1.31-3.89.78-5.35,5.68-6.69,8.84a43.61,43.61,0,0,0-3.4,12.3c-.41,3.87.41,7.89,3.71,10.28a11.79,11.79,0,0,0,5,1.93,17.14,17.14,0,0,0,5.75.31c4.13-.72,6.28-5.52,7.6-9a13.59,13.59,0,0,0,1-6.13,18.68,18.68,0,0,0-2-6.05c-1.59-3.32-3.41-7.8-7.21-9.11a4.48,4.48,0,0,0-5.44,1.8c-1.15,1.75-1.64,4.19-.06,5.86a3.5,3.5,0,0,0,1.24.84c.53.22,1.31.07,1.76.3-.26-.14.23.3.3.37a12.15,12.15,0,0,1,.93,1.09,11.47,11.47,0,0,1,2.25,5c.41,2.54-.59,6.83-3.77,6.88a11.38,11.38,0,0,1-5.13-1.14,2.57,2.57,0,0,0-3.42.89,2.53,2.53,0,0,0,.89,3.43,15.57,15.57,0,0,0,9.4,1.65c3.1-.56,5.27-3.3,6.34-6.1a12.93,12.93,0,0,0,.11-8.53c-.91-2.77-2.72-6-5.16-7.67a4.15,4.15,0,0,0-2.33-.85c-1.23,0,.75,1,.54,1.06v.17a6.12,6.12,0,0,1,.31-.56l-.74.22c.3-.09.41-.09.34,0-.1-.09.93.47.3.13a3.73,3.73,0,0,1,1.09,1A23.91,23.91,0,0,1,96,176a30.29,30.29,0,0,1,2,4.41c.93,2.83-.12,5.66-1.46,8.19-.51,1-1.18,2.5-2.16,3.1s-2.44.21-3.43.08c-2-.27-4.4-.75-5.29-2.78-1-2.3-.37-5.29.16-7.62a47.63,47.63,0,0,1,3-8.84,28.26,28.26,0,0,1,1.81-3.71c.67-1,1-.82,2.09-.45a14.66,14.66,0,0,1,6,4.27c1.52,1.7,3.74,4.35,3.16,6.78a39.82,39.82,0,0,1-1.63,4.47l-2,5.1c-.74,1.95-1.46,5.14-3.55,6.12-2.27,1.07-5.63.31-7.88-.47a8,8,0,0,1-5.28-5,21.68,21.68,0,0,1-.87-10.32,26.06,26.06,0,0,1,1.61-5.1c.33-.77.69-1.52,1-2.27a6.44,6.44,0,0,1,1-1.9l-1.11.65c-.89.05-1.39-.26-1.49-.91,0-.34-.06-.4-.16-.2-.15,0-.63.93-.7,1l-1.33,1.89a9.87,9.87,0,0,0-1.93,4c-.45,2.68,1,7.86,4.61,7.38,1.94-.27,2.65-2.41,3.46-3.9s1.71-3.07,2.49-4.64a9.83,9.83,0,0,0,1.27-5.07,14,14,0,0,0-1.78-5.22c-1.48-2.86-5.79-.33-4.32,2.53Z"/><path class="cls-1" d="M102.62,181.9c-.21.83-.45,1.65-.74,2.45l-.22.6a2,2,0,0,0-.24.59q.22-.53.06-.15c0,.1-.09.19-.13.29l-.24.51c-.36.74-.76,1.47-1.19,2.17q-.33.55-.69,1.08c-.12.18-.25.35-.37.52s-.66.77,0,0l1.11-.64h0l3.16,2.41a2.35,2.35,0,0,1-.33,1.22l0-.06c0-.07.07-.13.1-.2l.33-.7c.36-.74.72-1.48,1.09-2.22.78-1.61,1.58-3.21,2.34-4.83a6.9,6.9,0,0,0,.84-2.39,2.52,2.52,0,0,0-2.5-2.5,2.57,2.57,0,0,0-2.5,2.5c0-.63.15-.85,0-.55s.3-.69.2-.47l0,.12c-.12.25-.23.49-.34.74l-1.09,2.26c-.78,1.6-1.57,3.19-2.34,4.79a5.56,5.56,0,0,0-.83,2.29,2.53,2.53,0,0,0,3.17,2.41c1.22-.37,2-1.75,2.64-2.79a23.34,23.34,0,0,0,1.38-2.43,28.32,28.32,0,0,0,2.12-5.7,2.5,2.5,0,1,0-4.82-1.33Z"/><path class="cls-1" d="M187.56,163.15a19.32,19.32,0,0,0-14.88,11.33,16.55,16.55,0,0,0,3.75,18.25,31,31,0,0,0,9.33,5.93c3.82,1.54,7.42.4,10.63-1.91a17.3,17.3,0,0,0,4-3.48,32,32,0,0,0,2.45-4.54c1.72-3.45,3.67-6.74,2.84-10.74-.86-4.15-4.07-7.2-7.49-9.43s-7.37-4.64-11.57-4.4c-3.2.18-3.23,5.18,0,5,2.87-.16,5.4,1.51,7.77,2.93s4.72,3,5.92,5.53.22,4.57-.94,6.89-2.15,5.36-4.32,7.07c-1.93,1.53-4.27,3.41-6.87,2.64a16.73,16.73,0,0,1-3.56-1.79A29.82,29.82,0,0,1,180.9,190,11.59,11.59,0,0,1,177,177.23c1.62-5.24,6.7-8.46,11.91-9.26a2.52,2.52,0,0,0,1.74-3.08,2.55,2.55,0,0,0-3.07-1.74Z"/><path class="cls-1" d="M183.85,166.52c-4,4.27-7.87,9.29-8.76,15.23a11.2,11.2,0,0,0,1.74,8.56,16.16,16.16,0,0,0,7.55,5.3c6.13,2,11.88-2,15.26-6.83,3.54-5,2.5-11.53-1.29-16.12A13,13,0,0,0,190,168a9.23,9.23,0,0,0-8.65,4.32c-1.76,2.71,2.57,5.22,4.31,2.53,2.27-3.49,6.6-1.46,8.78,1a9.9,9.9,0,0,1,2.31,4.87,6.83,6.83,0,0,1-1.21,5.29c-2.05,3-5.7,6.17-9.62,4.93a11.29,11.29,0,0,1-5-3.33,6.32,6.32,0,0,1-1-5.06c.85-4.86,4.09-8.91,7.37-12.41,2.2-2.35-1.33-5.89-3.53-3.54Z"/><path class="cls-1" d="M181.66,172.05a14.93,14.93,0,0,0-3.47,7.27,24.78,24.78,0,0,0-.39,4,13.93,13.93,0,0,0,.38,4.13c1,3.09,4.82,4,7.61,4.68a29.58,29.58,0,0,0,9.09.71,2.5,2.5,0,0,0,0-5,24.79,24.79,0,0,1-6.87-.34,25.28,25.28,0,0,1-3.51-.95c-.28-.09-.57-.2-.85-.31-.61-.22.08.1-.37-.16-.05,0-.68-.36-.32-.15l-.06-.06c.07.17.08.17,0,0s0-.17,0,0c0-.13,0-.26,0-.38s0-.52,0-.78c0-.52,0-1,0-1.56a15.18,15.18,0,0,1,.23-2.7,14.92,14.92,0,0,1,.78-2.75c-.06.14.21-.41.26-.5a7,7,0,0,1,.37-.66,6.9,6.9,0,0,1,.42-.63h0a3.09,3.09,0,0,1,.33-.39,2.56,2.56,0,0,0,0-3.54,2.53,2.53,0,0,0-3.54,0Z"/></g><g id="Capa_1" data-name="Capa 1"><path class="cls-3" d="M55.8,177.82H67.56a2.5,2.5,0,0,0,0-5H55.8a2.5,2.5,0,0,0,0,5Z"/><ellipse class="cls-4" cx="90.61" cy="181.54" rx="17.32" ry="18.82"/><ellipse class="cls-5" cx="90.42" cy="181.47" rx="6.3" ry="6.79"/><path class="cls-3" d="M53.74,190.48H66.1a2.5,2.5,0,0,0,0-5H53.74a2.5,2.5,0,0,0,0,5Z"/><path class="cls-3" d="M114.28,190.26h43.29c3.22,0,3.22-5,0-5H114.28c-3.22,0-3.23,5,0,5Z"/><path class="cls-3" d="M53.35,94.72V174.4c0,3.22,5,3.22,5,0V94.72c0-3.22-5-3.22-5,0Z"/><path class="cls-3" d="M56,97H164.22c3.21,0,3.22-5,0-5H56c-3.22,0-3.23,5,0,5Z"/><path class="cls-3" d="M115.5,177.68h48.41c3.22,0,3.22-5,0-5H115.5c-3.22,0-3.22,5,0,5Z"/><ellipse class="cls-4" cx="188.73" cy="181.52" rx="18.65" ry="18.82"/><circle class="cls-5" cx="188.74" cy="181.4" r="6.79"/><path class="cls-3" d="M212.41,116.25v26c0,3.22,5,3.23,5,0v-26c0-3.22-5-3.22-5,0Z"/><path class="cls-3" d="M186,113.22V138c0,3.22,5,3.22,5,0V113.22c0-3.22-5-3.22-5,0Z"/><path class="cls-3" d="M164.36,115.8h60.2c3.22,0,3.23-5,0-5h-60.2c-3.22,0-3.23,5,0,5Z"/><path class="cls-3" d="M188.41,140.42c5.69.87,11.32,2.22,16.94,3.47q9.75,2.18,19.47,4.5c1.92.45,3.85.9,5.76,1.41,3.11.83,4.44-4,1.33-4.83-11.2-3-22.6-5.42-33.94-7.79-2.73-.58-5.47-1.16-8.23-1.58a2.57,2.57,0,0,0-3.07,1.74,2.52,2.52,0,0,0,1.74,3.08Z"/><path class="cls-4" d="M164.05,94c42-1,48.07-.41,61.85,19,6.36,9,6,25.5,7.12,31.44l-.5,42.57"/><path class="cls-3" d="M213.21,189.92h18.92c3.22,0,3.22-5,0-5H213.21c-3.21,0-3.22,5,0,5Z"/><path class="cls-3" d="M231.52,173.35H219.33a2.5,2.5,0,0,0,0,5h3.45a2.5,2.5,0,0,0,0-5h-3.45v5h12.19a2.5,2.5,0,0,0,0-5Z"/><path d="M76,72.52l24.42,8.92"/></g></svg>